<svg width="579" height="404" viewBox="0 0 579 404" fill="none" xmlns="http://www.w3.org/2000/svg">
<path d="M194.525 20V2.54545H198.215V10.2415H198.445L204.727 2.54545H209.15L202.673 10.3608L209.227 20H204.812L200.031 12.8239L198.215 15.0398V20H194.525ZM210.049 2.54545H214.183L218.163 10.0625H218.333L222.313 2.54545H226.447L220.08 13.8295V20H216.415V13.8295L210.049 2.54545ZM242.808 8.65625H239.075C239.007 8.1733 238.868 7.74432 238.658 7.36932C238.447 6.98864 238.178 6.66477 237.848 6.39773C237.518 6.13068 237.138 5.92614 236.706 5.78409C236.28 5.64205 235.817 5.57102 235.317 5.57102C234.413 5.57102 233.626 5.79545 232.956 6.24432C232.286 6.6875 231.766 7.33523 231.396 8.1875C231.027 9.03409 230.842 10.0625 230.842 11.2727C230.842 12.517 231.027 13.5625 231.396 14.4091C231.771 15.2557 232.294 15.8949 232.964 16.3267C233.635 16.7585 234.411 16.9744 235.291 16.9744C235.786 16.9744 236.243 16.9091 236.663 16.7784C237.089 16.6477 237.467 16.4574 237.797 16.2074C238.126 15.9517 238.399 15.642 238.615 15.2784C238.837 14.9148 238.99 14.5 239.075 14.0341L242.808 14.0511C242.712 14.8523 242.47 15.625 242.084 16.3693C241.703 17.108 241.189 17.7699 240.541 18.3551C239.899 18.9347 239.132 19.3949 238.24 19.7358C237.354 20.071 236.351 20.2386 235.232 20.2386C233.675 20.2386 232.283 19.8864 231.055 19.1818C229.834 18.4773 228.868 17.4574 228.158 16.1222C227.453 14.7869 227.101 13.1705 227.101 11.2727C227.101 9.36932 227.459 7.75 228.175 6.41477C228.891 5.07955 229.862 4.0625 231.089 3.36364C232.317 2.65909 233.697 2.30682 235.232 2.30682C236.243 2.30682 237.18 2.44886 238.044 2.73295C238.913 3.01705 239.683 3.43182 240.354 3.97727C241.024 4.51704 241.57 5.17898 241.99 5.96307C242.416 6.74716 242.689 7.64489 242.808 8.65625ZM254.163 2.54545L258.381 15.8068H258.543L262.771 2.54545H266.862L260.844 20H256.089L250.063 2.54545H254.163ZM273.384 20.2557C272.037 20.2557 270.878 19.983 269.906 19.4375C268.94 18.8864 268.196 18.108 267.673 17.1023C267.151 16.0909 266.889 14.8949 266.889 13.5142C266.889 12.1676 267.151 10.9858 267.673 9.96875C268.196 8.9517 268.932 8.15909 269.881 7.59091C270.835 7.02273 271.955 6.73864 273.239 6.73864C274.102 6.73864 274.906 6.87784 275.651 7.15625C276.401 7.42898 277.054 7.84091 277.611 8.39205C278.173 8.94318 278.611 9.63636 278.923 10.4716C279.236 11.3011 279.392 12.2727 279.392 13.3864V14.3835H268.338V12.1335H275.974C275.974 11.6108 275.861 11.1477 275.634 10.7443C275.406 10.3409 275.091 10.0256 274.688 9.7983C274.29 9.56534 273.827 9.44886 273.298 9.44886C272.747 9.44886 272.259 9.5767 271.832 9.83239C271.412 10.0824 271.082 10.4205 270.844 10.8466C270.605 11.267 270.483 11.7358 270.477 12.2528V14.392C270.477 15.0398 270.597 15.5994 270.835 16.071C271.08 16.5426 271.423 16.9062 271.866 17.1619C272.31 17.4176 272.835 17.5455 273.443 17.5455C273.847 17.5455 274.216 17.4886 274.551 17.375C274.886 17.2614 275.173 17.0909 275.412 16.8636C275.651 16.6364 275.832 16.358 275.957 16.0284L279.315 16.25C279.145 17.0568 278.795 17.7614 278.267 18.3636C277.744 18.9602 277.068 19.4261 276.239 19.7614C275.415 20.0909 274.463 20.2557 273.384 20.2557ZM281.761 20V6.90909H285.281V9.19318H285.418C285.656 8.38068 286.057 7.76705 286.619 7.35227C287.182 6.93182 287.83 6.72159 288.562 6.72159C288.744 6.72159 288.94 6.73295 289.151 6.75568C289.361 6.77841 289.545 6.80966 289.705 6.84943V10.071C289.534 10.0199 289.298 9.97443 288.997 9.93466C288.696 9.89489 288.42 9.875 288.17 9.875C287.636 9.875 287.159 9.99148 286.739 10.2244C286.324 10.4517 285.994 10.7699 285.75 11.179C285.511 11.5881 285.392 12.0597 285.392 12.5938V20H281.761ZM291.582 20V6.90909H295.212V20H291.582ZM293.406 5.22159C292.866 5.22159 292.403 5.04261 292.016 4.68466C291.636 4.32102 291.445 3.88636 291.445 3.38068C291.445 2.88068 291.636 2.4517 292.016 2.09375C292.403 1.73011 292.866 1.54829 293.406 1.54829C293.945 1.54829 294.406 1.73011 294.786 2.09375C295.173 2.4517 295.366 2.88068 295.366 3.38068C295.366 3.88636 295.173 4.32102 294.786 4.68466C294.406 5.04261 293.945 5.22159 293.406 5.22159ZM305.161 6.90909V9.63636H297.081V6.90909H305.161ZM298.93 20V5.96307C298.93 5.0142 299.115 4.22727 299.484 3.60227C299.859 2.97727 300.371 2.50852 301.018 2.19602C301.666 1.88352 302.402 1.72727 303.226 1.72727C303.783 1.72727 304.291 1.76989 304.751 1.85511C305.217 1.94034 305.564 2.01705 305.791 2.08523L305.143 4.8125C305.001 4.76705 304.825 4.72443 304.615 4.68466C304.411 4.64489 304.2 4.625 303.984 4.625C303.45 4.625 303.078 4.75 302.868 5C302.658 5.24432 302.553 5.58807 302.553 6.03125V20H298.93ZM307.379 20V6.90909H311.009V20H307.379ZM309.202 5.22159C308.663 5.22159 308.2 5.04261 307.813 4.68466C307.433 4.32102 307.242 3.88636 307.242 3.38068C307.242 2.88068 307.433 2.4517 307.813 2.09375C308.2 1.73011 308.663 1.54829 309.202 1.54829C309.742 1.54829 310.202 1.73011 310.583 2.09375C310.969 2.4517 311.163 2.88068 311.163 3.38068C311.163 3.88636 310.969 4.32102 310.583 4.68466C310.202 5.04261 309.742 5.22159 309.202 5.22159ZM319.832 20.2557C318.491 20.2557 317.338 19.9716 316.372 19.4034C315.412 18.8295 314.673 18.0341 314.156 17.017C313.645 16 313.389 14.8295 313.389 13.5057C313.389 12.1648 313.648 10.9886 314.165 9.97727C314.688 8.96023 315.429 8.16761 316.389 7.59943C317.349 7.02557 318.491 6.73864 319.815 6.73864C320.957 6.73864 321.957 6.94602 322.815 7.36079C323.673 7.77557 324.352 8.35795 324.852 9.10795C325.352 9.85795 325.628 10.7386 325.679 11.75H322.253C322.156 11.0966 321.901 10.571 321.486 10.1733C321.077 9.76989 320.54 9.56818 319.875 9.56818C319.312 9.56818 318.821 9.72159 318.401 10.0284C317.986 10.3295 317.662 10.7699 317.429 11.3494C317.196 11.929 317.08 12.6307 317.08 13.4545C317.08 14.2898 317.193 15 317.42 15.5852C317.653 16.1705 317.98 16.6165 318.401 16.9233C318.821 17.2301 319.312 17.3835 319.875 17.3835C320.29 17.3835 320.662 17.2983 320.991 17.1278C321.327 16.9574 321.602 16.7102 321.818 16.3864C322.04 16.0568 322.185 15.6619 322.253 15.2017H325.679C325.622 16.2017 325.349 17.0824 324.861 17.8438C324.378 18.5994 323.71 19.1903 322.858 19.6165C322.006 20.0426 320.997 20.2557 319.832 20.2557ZM331.737 20.2472C330.901 20.2472 330.157 20.1023 329.504 19.8125C328.85 19.517 328.333 19.0824 327.952 18.5085C327.577 17.929 327.39 17.2074 327.39 16.3438C327.39 15.6165 327.523 15.0057 327.79 14.5114C328.058 14.017 328.421 13.6193 328.881 13.3182C329.342 13.017 329.864 12.7898 330.45 12.6364C331.04 12.483 331.66 12.375 332.308 12.3125C333.069 12.233 333.683 12.1591 334.148 12.0909C334.614 12.017 334.952 11.9091 335.163 11.767C335.373 11.625 335.478 11.4148 335.478 11.1364V11.0852C335.478 10.5455 335.308 10.1278 334.967 9.83239C334.631 9.53693 334.154 9.3892 333.535 9.3892C332.881 9.3892 332.362 9.53409 331.975 9.82386C331.589 10.108 331.333 10.4659 331.208 10.8977L327.85 10.625C328.021 9.82955 328.356 9.14205 328.856 8.5625C329.356 7.97727 330.001 7.52841 330.79 7.21591C331.586 6.89773 332.506 6.73864 333.552 6.73864C334.279 6.73864 334.975 6.82386 335.64 6.99432C336.31 7.16477 336.904 7.42898 337.421 7.78693C337.944 8.14489 338.356 8.60511 338.657 9.16761C338.958 9.72443 339.109 10.392 339.109 11.1705V20H335.665V18.1847H335.563C335.353 18.5938 335.072 18.9545 334.719 19.267C334.367 19.5739 333.944 19.8153 333.45 19.9915C332.955 20.1619 332.384 20.2472 331.737 20.2472ZM332.776 17.7415C333.31 17.7415 333.782 17.6364 334.191 17.4261C334.6 17.2102 334.921 16.9205 335.154 16.5568C335.387 16.1932 335.504 15.7812 335.504 15.321V13.9318C335.39 14.0057 335.234 14.0739 335.035 14.1364C334.842 14.1932 334.623 14.2472 334.379 14.2983C334.134 14.3437 333.89 14.3864 333.646 14.4261C333.401 14.4602 333.18 14.4915 332.981 14.5199C332.555 14.5824 332.183 14.6818 331.864 14.8182C331.546 14.9545 331.299 15.1392 331.123 15.3722C330.947 15.5994 330.859 15.8835 330.859 16.2244C330.859 16.7188 331.038 17.0966 331.396 17.358C331.759 17.6136 332.219 17.7415 332.776 17.7415ZM348.888 6.90909V9.63636H341.005V6.90909H348.888ZM342.795 3.77273H346.425V15.9773C346.425 16.3125 346.477 16.5739 346.579 16.7614C346.681 16.9432 346.823 17.071 347.005 17.1449C347.192 17.2187 347.408 17.2557 347.653 17.2557C347.823 17.2557 347.994 17.2415 348.164 17.2131C348.335 17.179 348.465 17.1534 348.556 17.1364L349.127 19.8381C348.945 19.8949 348.69 19.9602 348.36 20.0341C348.031 20.1136 347.63 20.1619 347.158 20.179C346.283 20.2131 345.516 20.0966 344.857 19.8295C344.204 19.5625 343.695 19.1477 343.332 18.5852C342.968 18.0227 342.789 17.3125 342.795 16.4545V3.77273ZM351.254 20V6.90909H354.884V20H351.254ZM353.077 5.22159C352.538 5.22159 352.075 5.04261 351.688 4.68466C351.308 4.32102 351.117 3.88636 351.117 3.38068C351.117 2.88068 351.308 2.4517 351.688 2.09375C352.075 1.73011 352.538 1.54829 353.077 1.54829C353.617 1.54829 354.077 1.73011 354.458 2.09375C354.844 2.4517 355.038 2.88068 355.038 3.38068C355.038 3.88636 354.844 4.32102 354.458 4.68466C354.077 5.04261 353.617 5.22159 353.077 5.22159ZM363.707 20.2557C362.384 20.2557 361.239 19.9744 360.273 19.4119C359.313 18.8437 358.571 18.054 358.048 17.0426C357.526 16.0256 357.264 14.8466 357.264 13.5057C357.264 12.1534 357.526 10.9716 358.048 9.96023C358.571 8.94318 359.313 8.15341 360.273 7.59091C361.239 7.02273 362.384 6.73864 363.707 6.73864C365.031 6.73864 366.173 7.02273 367.134 7.59091C368.099 8.15341 368.844 8.94318 369.366 9.96023C369.889 10.9716 370.151 12.1534 370.151 13.5057C370.151 14.8466 369.889 16.0256 369.366 17.0426C368.844 18.054 368.099 18.8437 367.134 19.4119C366.173 19.9744 365.031 20.2557 363.707 20.2557ZM363.724 17.4432C364.327 17.4432 364.83 17.2727 365.233 16.9318C365.636 16.5852 365.94 16.1136 366.145 15.517C366.355 14.9205 366.46 14.2415 366.46 13.4801C366.46 12.7188 366.355 12.0398 366.145 11.4432C365.94 10.8466 365.636 10.375 365.233 10.0284C364.83 9.68182 364.327 9.50852 363.724 9.50852C363.116 9.50852 362.605 9.68182 362.19 10.0284C361.781 10.375 361.472 10.8466 361.261 11.4432C361.057 12.0398 360.955 12.7188 360.955 13.4801C360.955 14.2415 361.057 14.9205 361.261 15.517C361.472 16.1136 361.781 16.5852 362.19 16.9318C362.605 17.2727 363.116 17.4432 363.724 17.4432ZM376.142 12.4318V20H372.511V6.90909H375.972V9.21875H376.125C376.415 8.45739 376.901 7.85511 377.582 7.41193C378.264 6.96307 379.091 6.73864 380.062 6.73864C380.972 6.73864 381.764 6.9375 382.44 7.33523C383.116 7.73295 383.642 8.30114 384.017 9.03977C384.392 9.77273 384.58 10.6477 384.58 11.6648V20H380.949V12.3125C380.955 11.5114 380.75 10.8864 380.335 10.4375C379.92 9.98295 379.349 9.75568 378.622 9.75568C378.134 9.75568 377.702 9.8608 377.327 10.071C376.957 10.2812 376.668 10.5881 376.457 10.9915C376.253 11.3892 376.148 11.8693 376.142 12.4318Z" fill="black"/>
<line x1="0.5" y1="33.5" x2="578.5" y2="33.5" stroke="#EAEAEA"/>
<path d="M175.439 63.898L171.967 58.2H173.339L176.041 62.75L178.743 58.2H180.115L176.643 63.898V68H175.439V63.898ZM183.053 68.112C182.371 68.112 181.755 67.958 181.205 67.65C180.654 67.3327 180.225 66.8987 179.917 66.348C179.618 65.7973 179.469 65.172 179.469 64.472C179.469 63.772 179.618 63.1467 179.917 62.596C180.225 62.0453 180.654 61.616 181.205 61.308C181.755 60.9907 182.371 60.832 183.053 60.832C183.743 60.832 184.359 60.9907 184.901 61.308C185.451 61.616 185.881 62.0453 186.189 62.596C186.497 63.1467 186.651 63.772 186.651 64.472C186.651 65.172 186.497 65.7973 186.189 66.348C185.881 66.8987 185.451 67.3327 184.901 67.65C184.359 67.958 183.743 68.112 183.053 68.112ZM183.053 67.104C183.529 67.104 183.953 66.992 184.327 66.768C184.7 66.544 184.985 66.2313 185.181 65.83C185.386 65.4287 185.489 64.976 185.489 64.472C185.489 63.968 185.386 63.5153 185.181 63.114C184.985 62.7127 184.7 62.4 184.327 62.176C183.953 61.952 183.529 61.84 183.053 61.84C182.577 61.84 182.152 61.952 181.779 62.176C181.415 62.4 181.13 62.7127 180.925 63.114C180.719 63.5153 180.617 63.968 180.617 64.472C180.617 64.976 180.719 65.4287 180.925 65.83C181.13 66.2313 181.415 66.544 181.779 66.768C182.152 66.992 182.577 67.104 183.053 67.104ZM190.819 68.112C190.305 68.112 189.848 67.9953 189.447 67.762C189.045 67.5193 188.737 67.1833 188.523 66.754C188.308 66.3247 188.201 65.8253 188.201 65.256V60.944H189.321V65.074C189.321 65.6807 189.479 66.1707 189.797 66.544C190.123 66.908 190.553 67.09 191.085 67.09C191.477 67.09 191.831 66.992 192.149 66.796C192.466 66.5907 192.713 66.3107 192.891 65.956C193.068 65.6013 193.157 65.2 193.157 64.752V60.944H194.277V68H193.157V66.642C192.97 67.1273 192.671 67.496 192.261 67.748C191.859 67.9907 191.379 68.112 190.819 68.112ZM196.406 60.944H197.526V62.372C197.675 61.8867 197.904 61.5273 198.212 61.294C198.529 61.0607 198.94 60.944 199.444 60.944H200.34V61.938H199.374C198.702 61.938 198.226 62.204 197.946 62.736C197.666 63.2587 197.526 63.9773 197.526 64.892V68H196.406V60.944ZM207.862 68.112C207.153 68.112 206.546 67.9533 206.042 67.636C205.538 67.3187 205.151 66.8847 204.88 66.334C204.619 65.7833 204.488 65.1627 204.488 64.472C204.488 63.7813 204.619 63.1607 204.88 62.61C205.151 62.0593 205.538 61.6253 206.042 61.308C206.546 60.9907 207.158 60.832 207.876 60.832C208.362 60.832 208.819 60.9487 209.248 61.182C209.687 61.4153 210.014 61.7187 210.228 62.092V58.046H211.348V68H210.228V66.838C210.014 67.2207 209.687 67.5287 209.248 67.762C208.819 67.9953 208.357 68.112 207.862 68.112ZM207.988 67.104C208.455 67.104 208.861 66.9967 209.206 66.782C209.561 66.5673 209.836 66.2593 210.032 65.858C210.228 65.4567 210.326 64.9947 210.326 64.472C210.326 63.6693 210.112 63.03 209.682 62.554C209.262 62.078 208.698 61.84 207.988 61.84C207.522 61.84 207.111 61.9473 206.756 62.162C206.402 62.3767 206.126 62.6847 205.93 63.086C205.744 63.4873 205.65 63.9493 205.65 64.472C205.65 65.2747 205.86 65.914 206.28 66.39C206.71 66.866 207.279 67.104 207.988 67.104ZM216.576 68.112C215.895 68.112 215.279 67.958 214.728 67.65C214.177 67.3327 213.748 66.8987 213.44 66.348C213.141 65.7973 212.992 65.172 212.992 64.472C212.992 63.772 213.141 63.1467 213.44 62.596C213.748 62.0453 214.177 61.616 214.728 61.308C215.279 60.9907 215.895 60.832 216.576 60.832C217.267 60.832 217.883 60.9907 218.424 61.308C218.975 61.616 219.404 62.0453 219.712 62.596C220.02 63.1467 220.174 63.772 220.174 64.472C220.174 65.172 220.02 65.7973 219.712 66.348C219.404 66.8987 218.975 67.3327 218.424 67.65C217.883 67.958 217.267 68.112 216.576 68.112ZM216.576 67.104C217.052 67.104 217.477 66.992 217.85 66.768C218.223 66.544 218.508 66.2313 218.704 65.83C218.909 65.4287 219.012 64.976 219.012 64.472C219.012 63.968 218.909 63.5153 218.704 63.114C218.508 62.7127 218.223 62.4 217.85 62.176C217.477 61.952 217.052 61.84 216.576 61.84C216.1 61.84 215.675 61.952 215.302 62.176C214.938 62.4 214.653 62.7127 214.448 63.114C214.243 63.5153 214.14 63.968 214.14 64.472C214.14 64.976 214.243 65.4287 214.448 65.83C214.653 66.2313 214.938 66.544 215.302 66.768C215.675 66.992 216.1 67.104 216.576 67.104ZM224.748 68.112C224.029 68.112 223.409 67.944 222.886 67.608C222.373 67.272 221.981 66.8287 221.71 66.278C221.449 65.718 221.318 65.116 221.318 64.472C221.318 63.828 221.449 63.2307 221.71 62.68C221.981 62.12 222.373 61.672 222.886 61.336C223.409 61 224.029 60.832 224.748 60.832C225.28 60.832 225.775 60.9347 226.232 61.14C226.699 61.336 227.086 61.6253 227.394 62.008C227.702 62.3813 227.889 62.82 227.954 63.324H226.848C226.773 62.8947 226.54 62.54 226.148 62.26C225.756 61.98 225.294 61.84 224.762 61.84C224.267 61.84 223.847 61.9567 223.502 62.19C223.166 62.4233 222.909 62.7407 222.732 63.142C222.564 63.534 222.48 63.9773 222.48 64.472C222.48 65.2373 222.676 65.8673 223.068 66.362C223.469 66.8567 224.034 67.104 224.762 67.104C225.294 67.104 225.742 66.9827 226.106 66.74C226.479 66.488 226.727 66.1473 226.848 65.718H227.94C227.865 66.2033 227.688 66.6233 227.408 66.978C227.128 67.3327 226.759 67.6127 226.302 67.818C225.854 68.014 225.336 68.112 224.748 68.112ZM232.08 68.112C231.567 68.112 231.11 67.9953 230.708 67.762C230.307 67.5193 229.999 67.1833 229.784 66.754C229.57 66.3247 229.462 65.8253 229.462 65.256V60.944H230.582V65.074C230.582 65.6807 230.741 66.1707 231.058 66.544C231.385 66.908 231.814 67.09 232.346 67.09C232.738 67.09 233.093 66.992 233.41 66.796C233.728 66.5907 233.975 66.3107 234.152 65.956C234.33 65.6013 234.418 65.2 234.418 64.752V60.944H235.538V68H234.418V66.642C234.232 67.1273 233.933 67.496 233.522 67.748C233.121 67.9907 232.64 68.112 232.08 68.112ZM237.668 60.944H238.802V62.302C238.932 61.854 239.189 61.4993 239.572 61.238C239.954 60.9673 240.412 60.832 240.944 60.832C241.513 60.832 242.008 60.9673 242.428 61.238C242.848 61.4993 243.123 61.868 243.254 62.344C243.384 61.9147 243.664 61.5553 244.094 61.266C244.532 60.9767 245.008 60.832 245.522 60.832C246.026 60.832 246.464 60.944 246.838 61.168C247.211 61.3827 247.496 61.6953 247.692 62.106C247.888 62.5167 247.986 63.002 247.986 63.562V68H246.852V63.856C246.852 63.2493 246.707 62.764 246.418 62.4C246.138 62.0267 245.75 61.84 245.256 61.84C244.882 61.84 244.551 61.952 244.262 62.176C243.982 62.3907 243.762 62.6753 243.604 63.03C243.454 63.3847 243.38 63.7673 243.38 64.178V68H242.26V63.856C242.26 63.2493 242.115 62.764 241.826 62.4C241.546 62.0267 241.163 61.84 240.678 61.84C240.304 61.84 239.973 61.952 239.684 62.176C239.394 62.3907 239.175 62.6753 239.026 63.03C238.876 63.3847 238.802 63.7673 238.802 64.178V68H237.668V60.944ZM253.009 68.112C252.328 68.112 251.721 67.9487 251.189 67.622C250.657 67.286 250.242 66.838 249.943 66.278C249.654 65.718 249.509 65.102 249.509 64.43C249.509 63.7393 249.645 63.1233 249.915 62.582C250.195 62.0407 250.587 61.616 251.091 61.308C251.605 60.9907 252.202 60.832 252.883 60.832C253.555 60.832 254.139 60.9767 254.633 61.266C255.128 61.5553 255.506 61.952 255.767 62.456C256.038 62.9507 256.173 63.5107 256.173 64.136C256.173 64.3133 256.164 64.4813 256.145 64.64H250.167V63.716H255.011C254.965 63.1187 254.755 62.6473 254.381 62.302C254.008 61.9567 253.509 61.784 252.883 61.784C252.417 61.784 252.011 61.8913 251.665 62.106C251.329 62.3113 251.073 62.61 250.895 63.002C250.718 63.394 250.629 63.8653 250.629 64.416C250.629 64.9293 250.732 65.3913 250.937 65.802C251.143 66.2127 251.427 66.5347 251.791 66.768C252.155 67.0013 252.561 67.118 253.009 67.118C253.569 67.118 254.027 67.0013 254.381 66.768C254.745 66.5253 254.983 66.18 255.095 65.732H256.243C256.122 66.4507 255.767 67.0293 255.179 67.468C254.601 67.8973 253.877 68.112 253.009 68.112ZM257.861 60.944H258.981V62.302C259.168 61.8167 259.462 61.4527 259.863 61.21C260.274 60.958 260.759 60.832 261.319 60.832C261.842 60.832 262.299 60.9533 262.691 61.196C263.092 61.4293 263.4 61.7607 263.615 62.19C263.839 62.6193 263.951 63.1187 263.951 63.688V68H262.817V63.87C262.817 63.2633 262.658 62.778 262.341 62.414C262.024 62.0407 261.599 61.854 261.067 61.854C260.666 61.854 260.306 61.9567 259.989 62.162C259.672 62.358 259.424 62.6333 259.247 62.988C259.07 63.3427 258.981 63.744 258.981 64.192V68H257.861V60.944ZM268.659 68C268.211 68 267.819 67.9113 267.483 67.734C267.156 67.5567 266.899 67.3 266.713 66.964C266.535 66.628 266.447 66.236 266.447 65.788V61.938H264.977V60.944H266.447V58.69H267.567V60.944H269.737V61.938H267.567V65.76C267.567 66.152 267.665 66.46 267.861 66.684C268.066 66.8987 268.346 67.006 268.701 67.006H269.737V68H268.659ZM273.39 68.112C272.839 68.112 272.363 68.0187 271.962 67.832C271.561 67.6453 271.243 67.3747 271.01 67.02C270.777 66.6653 270.646 66.2407 270.618 65.746H271.668C271.715 66.1847 271.887 66.53 272.186 66.782C272.485 67.0247 272.886 67.146 273.39 67.146C273.847 67.146 274.211 67.0433 274.482 66.838C274.762 66.6233 274.902 66.3387 274.902 65.984C274.902 65.7227 274.827 65.522 274.678 65.382C274.529 65.2327 274.342 65.1253 274.118 65.06C273.894 64.9947 273.577 64.9247 273.166 64.85C272.662 64.766 272.251 64.6727 271.934 64.57C271.617 64.458 271.346 64.276 271.122 64.024C270.898 63.7627 270.786 63.394 270.786 62.918C270.786 62.5073 270.893 62.148 271.108 61.84C271.323 61.5227 271.617 61.2753 271.99 61.098C272.363 60.9207 272.793 60.832 273.278 60.832C273.81 60.832 274.267 60.916 274.65 61.084C275.042 61.252 275.35 61.4993 275.574 61.826C275.798 62.1527 275.929 62.54 275.966 62.988H274.902C274.865 62.6147 274.697 62.3207 274.398 62.106C274.109 61.882 273.74 61.77 273.292 61.77C272.9 61.77 272.564 61.868 272.284 62.064C272.013 62.26 271.878 62.5213 271.878 62.848C271.878 63.0907 271.948 63.282 272.088 63.422C272.237 63.562 272.424 63.6647 272.648 63.73C272.872 63.786 273.175 63.842 273.558 63.898C274.081 63.982 274.505 64.08 274.832 64.192C275.159 64.2947 275.434 64.486 275.658 64.766C275.891 65.046 276.008 65.438 276.008 65.942C276.008 66.3807 275.901 66.7633 275.686 67.09C275.481 67.4167 275.182 67.6687 274.79 67.846C274.398 68.0233 273.931 68.112 273.39 68.112ZM283.135 68.112C282.649 68.112 282.22 68.0233 281.847 67.846C281.483 67.6687 281.198 67.4213 280.993 67.104C280.797 66.7773 280.699 66.404 280.699 65.984C280.699 65.536 280.811 65.144 281.035 64.808C281.268 64.4627 281.595 64.2013 282.015 64.024C282.444 63.8373 282.939 63.744 283.499 63.744H285.137C285.286 63.744 285.393 63.716 285.459 63.66C285.524 63.604 285.557 63.52 285.557 63.408C285.557 62.9227 285.389 62.5307 285.053 62.232C284.717 61.9333 284.255 61.784 283.667 61.784C283.321 61.784 283.009 61.8493 282.729 61.98C282.449 62.1107 282.22 62.2833 282.043 62.498C281.875 62.7127 281.781 62.9507 281.763 63.212H280.685C280.731 62.764 280.89 62.358 281.161 61.994C281.441 61.63 281.8 61.3453 282.239 61.14C282.687 60.9347 283.167 60.832 283.681 60.832C284.287 60.832 284.815 60.944 285.263 61.168C285.711 61.3827 286.056 61.686 286.299 62.078C286.551 62.47 286.677 62.9273 286.677 63.45V68H285.557V66.782L285.473 66.922C285.333 67.1647 285.141 67.3747 284.899 67.552C284.665 67.7293 284.399 67.8693 284.101 67.972C283.802 68.0653 283.48 68.112 283.135 68.112ZM283.303 67.16C284.012 67.16 284.563 66.9547 284.955 66.544C285.356 66.124 285.557 65.55 285.557 64.822V64.668H283.569C283.046 64.668 282.626 64.7847 282.309 65.018C282.001 65.2513 281.847 65.5687 281.847 65.97C281.847 66.334 281.977 66.6233 282.239 66.838C282.509 67.0527 282.864 67.16 283.303 67.16ZM288.705 60.944H289.825V62.372C289.974 61.8867 290.203 61.5273 290.511 61.294C290.828 61.0607 291.239 60.944 291.743 60.944H292.639V61.938H291.673C291.001 61.938 290.525 62.204 290.245 62.736C289.965 63.2587 289.825 63.9773 289.825 64.892V68H288.705V60.944ZM296.636 68.112C295.955 68.112 295.348 67.9487 294.816 67.622C294.284 67.286 293.869 66.838 293.57 66.278C293.281 65.718 293.136 65.102 293.136 64.43C293.136 63.7393 293.272 63.1233 293.542 62.582C293.822 62.0407 294.214 61.616 294.718 61.308C295.232 60.9907 295.829 60.832 296.51 60.832C297.182 60.832 297.766 60.9767 298.26 61.266C298.755 61.5553 299.133 61.952 299.394 62.456C299.665 62.9507 299.8 63.5107 299.8 64.136C299.8 64.3133 299.791 64.4813 299.772 64.64H293.794V63.716H298.638C298.592 63.1187 298.382 62.6473 298.008 62.302C297.635 61.9567 297.136 61.784 296.51 61.784C296.044 61.784 295.638 61.8913 295.292 62.106C294.956 62.3113 294.7 62.61 294.522 63.002C294.345 63.394 294.256 63.8653 294.256 64.416C294.256 64.9293 294.359 65.3913 294.564 65.802C294.77 66.2127 295.054 66.5347 295.418 66.768C295.782 67.0013 296.188 67.118 296.636 67.118C297.196 67.118 297.654 67.0013 298.008 66.768C298.372 66.5253 298.61 66.18 298.722 65.732H299.87C299.749 66.4507 299.394 67.0293 298.806 67.468C298.228 67.8973 297.504 68.112 296.636 68.112ZM308.337 68.112C307.842 68.112 307.376 67.9953 306.937 67.762C306.508 67.5287 306.186 67.2207 305.971 66.838V68H304.851V58.046H305.971V62.092C306.195 61.7187 306.522 61.4153 306.951 61.182C307.38 60.9487 307.842 60.832 308.337 60.832C309.046 60.832 309.653 60.9907 310.157 61.308C310.67 61.6253 311.058 62.0593 311.319 62.61C311.59 63.1607 311.725 63.7813 311.725 64.472C311.725 65.1627 311.59 65.7833 311.319 66.334C311.058 66.8847 310.67 67.3187 310.157 67.636C309.653 67.9533 309.046 68.112 308.337 68.112ZM308.211 67.104C308.687 67.104 309.098 66.9967 309.443 66.782C309.798 66.5673 310.073 66.2593 310.269 65.858C310.465 65.4567 310.563 64.9947 310.563 64.472C310.563 63.6693 310.348 63.03 309.919 62.554C309.499 62.078 308.934 61.84 308.225 61.84C307.749 61.84 307.334 61.9473 306.979 62.162C306.634 62.3767 306.363 62.6847 306.167 63.086C305.971 63.4873 305.873 63.9493 305.873 64.472C305.873 65.2747 306.083 65.914 306.503 66.39C306.932 66.866 307.502 67.104 308.211 67.104ZM316.365 68.112C315.683 68.112 315.077 67.9487 314.545 67.622C314.013 67.286 313.597 66.838 313.299 66.278C313.009 65.718 312.865 65.102 312.865 64.43C312.865 63.7393 313 63.1233 313.271 62.582C313.551 62.0407 313.943 61.616 314.447 61.308C314.96 60.9907 315.557 60.832 316.239 60.832C316.911 60.832 317.494 60.9767 317.989 61.266C318.483 61.5553 318.861 61.952 319.123 62.456C319.393 62.9507 319.529 63.5107 319.529 64.136C319.529 64.3133 319.519 64.4813 319.501 64.64H313.523V63.716H318.367C318.32 63.1187 318.11 62.6473 317.737 62.302C317.363 61.9567 316.864 61.784 316.239 61.784C315.772 61.784 315.366 61.8913 315.021 62.106C314.685 62.3113 314.428 62.61 314.251 63.002C314.073 63.394 313.985 63.8653 313.985 64.416C313.985 64.9293 314.087 65.3913 314.293 65.802C314.498 66.2127 314.783 66.5347 315.147 66.768C315.511 67.0013 315.917 67.118 316.365 67.118C316.925 67.118 317.382 67.0013 317.737 66.768C318.101 66.5253 318.339 66.18 318.451 65.732H319.599C319.477 66.4507 319.123 67.0293 318.535 67.468C317.956 67.8973 317.233 68.112 316.365 68.112ZM321.216 60.944H322.336V68H321.216V60.944ZM322.42 58.046V59.614H321.132V58.046H322.42ZM324.484 60.944H325.604V62.302C325.791 61.8167 326.085 61.4527 326.486 61.21C326.897 60.958 327.382 60.832 327.942 60.832C328.465 60.832 328.922 60.9533 329.314 61.196C329.715 61.4293 330.023 61.7607 330.238 62.19C330.462 62.6193 330.574 63.1187 330.574 63.688V68H329.44V63.87C329.44 63.2633 329.281 62.778 328.964 62.414C328.647 62.0407 328.222 61.854 327.69 61.854C327.289 61.854 326.929 61.9567 326.612 62.162C326.295 62.358 326.047 62.6333 325.87 62.988C325.693 63.3427 325.604 63.744 325.604 64.192V68H324.484V60.944ZM333.053 69.89H336.315C336.772 69.89 337.146 69.736 337.435 69.428C337.724 69.1293 337.869 68.742 337.869 68.266V67.02C337.701 67.3467 337.398 67.6127 336.959 67.818C336.52 68.014 336.035 68.112 335.503 68.112C334.794 68.112 334.187 67.9533 333.683 67.636C333.179 67.3187 332.792 66.8847 332.521 66.334C332.26 65.7833 332.129 65.1627 332.129 64.472C332.129 63.7813 332.26 63.1607 332.521 62.61C332.792 62.0593 333.179 61.6253 333.683 61.308C334.187 60.9907 334.798 60.832 335.517 60.832C335.993 60.832 336.446 60.9393 336.875 61.154C337.314 61.3687 337.645 61.644 337.869 61.98V60.944H338.989V68.308C338.989 68.812 338.882 69.2553 338.667 69.638C338.452 70.0207 338.144 70.3193 337.743 70.534C337.342 70.7487 336.889 70.856 336.385 70.856H333.053V69.89ZM335.629 67.104C336.096 67.104 336.502 66.9967 336.847 66.782C337.202 66.5673 337.477 66.2593 337.673 65.858C337.869 65.4567 337.967 64.9947 337.967 64.472C337.967 63.6693 337.752 63.03 337.323 62.554C336.903 62.078 336.338 61.84 335.629 61.84C335.162 61.84 334.752 61.9473 334.397 62.162C334.042 62.3767 333.767 62.6847 333.571 63.086C333.384 63.4873 333.291 63.9493 333.291 64.472C333.291 65.2747 333.501 65.914 333.921 66.39C334.35 66.866 334.92 67.104 335.629 67.104ZM347.02 68.112C346.507 68.112 346.049 67.9953 345.648 67.762C345.247 67.5193 344.939 67.1833 344.724 66.754C344.509 66.3247 344.402 65.8253 344.402 65.256V60.944H345.522V65.074C345.522 65.6807 345.681 66.1707 345.998 66.544C346.325 66.908 346.754 67.09 347.286 67.09C347.678 67.09 348.033 66.992 348.35 66.796C348.667 66.5907 348.915 66.3107 349.092 65.956C349.269 65.6013 349.358 65.2 349.358 64.752V60.944H350.478V68H349.358V66.642C349.171 67.1273 348.873 67.496 348.462 67.748C348.061 67.9907 347.58 68.112 347.02 68.112ZM352.607 60.944H353.727V62.092C353.951 61.7187 354.278 61.4153 354.707 61.182C355.136 60.9487 355.598 60.832 356.093 60.832C356.802 60.832 357.409 60.9907 357.913 61.308C358.426 61.6253 358.814 62.0593 359.075 62.61C359.346 63.1607 359.481 63.7813 359.481 64.472C359.481 65.1627 359.346 65.7833 359.075 66.334C358.814 66.8847 358.426 67.3187 357.913 67.636C357.409 67.9533 356.802 68.112 356.093 68.112C355.598 68.112 355.132 67.9953 354.693 67.762C354.264 67.5287 353.942 67.2207 353.727 66.838V70.856H352.607V60.944ZM355.967 67.104C356.443 67.104 356.854 66.9967 357.199 66.782C357.554 66.5673 357.829 66.2593 358.025 65.858C358.221 65.4567 358.319 64.9947 358.319 64.472C358.319 63.6693 358.104 63.03 357.675 62.554C357.255 62.078 356.69 61.84 355.981 61.84C355.505 61.84 355.09 61.9473 354.735 62.162C354.39 62.3767 354.119 62.6847 353.923 63.086C353.727 63.4873 353.629 63.9493 353.629 64.472C353.629 65.2747 353.839 65.914 354.259 66.39C354.688 66.866 355.258 67.104 355.967 67.104ZM361.125 58.046H362.245V68H361.125V58.046ZM367.472 68.112C366.791 68.112 366.175 67.958 365.624 67.65C365.074 67.3327 364.644 66.8987 364.336 66.348C364.038 65.7973 363.888 65.172 363.888 64.472C363.888 63.772 364.038 63.1467 364.336 62.596C364.644 62.0453 365.074 61.616 365.624 61.308C366.175 60.9907 366.791 60.832 367.472 60.832C368.163 60.832 368.779 60.9907 369.32 61.308C369.871 61.616 370.3 62.0453 370.608 62.596C370.916 63.1467 371.07 63.772 371.07 64.472C371.07 65.172 370.916 65.7973 370.608 66.348C370.3 66.8987 369.871 67.3327 369.32 67.65C368.779 67.958 368.163 68.112 367.472 68.112ZM367.472 67.104C367.948 67.104 368.373 66.992 368.746 66.768C369.12 66.544 369.404 66.2313 369.6 65.83C369.806 65.4287 369.908 64.976 369.908 64.472C369.908 63.968 369.806 63.5153 369.6 63.114C369.404 62.7127 369.12 62.4 368.746 62.176C368.373 61.952 367.948 61.84 367.472 61.84C366.996 61.84 366.572 61.952 366.198 62.176C365.834 62.4 365.55 62.7127 365.344 63.114C365.139 63.5153 365.036 63.968 365.036 64.472C365.036 64.976 365.139 65.4287 365.344 65.83C365.55 66.2313 365.834 66.544 366.198 66.768C366.572 66.992 366.996 67.104 367.472 67.104ZM374.805 68.112C374.319 68.112 373.89 68.0233 373.517 67.846C373.153 67.6687 372.868 67.4213 372.663 67.104C372.467 66.7773 372.369 66.404 372.369 65.984C372.369 65.536 372.481 65.144 372.705 64.808C372.938 64.4627 373.265 64.2013 373.685 64.024C374.114 63.8373 374.609 63.744 375.169 63.744H376.807C376.956 63.744 377.063 63.716 377.129 63.66C377.194 63.604 377.227 63.52 377.227 63.408C377.227 62.9227 377.059 62.5307 376.723 62.232C376.387 61.9333 375.925 61.784 375.337 61.784C374.991 61.784 374.679 61.8493 374.399 61.98C374.119 62.1107 373.89 62.2833 373.713 62.498C373.545 62.7127 373.451 62.9507 373.433 63.212H372.355C372.401 62.764 372.56 62.358 372.831 61.994C373.111 61.63 373.47 61.3453 373.909 61.14C374.357 60.9347 374.837 60.832 375.351 60.832C375.957 60.832 376.485 60.944 376.933 61.168C377.381 61.3827 377.726 61.686 377.969 62.078C378.221 62.47 378.347 62.9273 378.347 63.45V68H377.227V66.782L377.143 66.922C377.003 67.1647 376.811 67.3747 376.569 67.552C376.335 67.7293 376.069 67.8693 375.771 67.972C375.472 68.0653 375.15 68.112 374.805 68.112ZM374.973 67.16C375.682 67.16 376.233 66.9547 376.625 66.544C377.026 66.124 377.227 65.55 377.227 64.822V64.668H375.239C374.716 64.668 374.296 64.7847 373.979 65.018C373.671 65.2513 373.517 65.5687 373.517 65.97C373.517 66.334 373.647 66.6233 373.909 66.838C374.179 67.0527 374.534 67.16 374.973 67.16ZM383.273 68.112C382.563 68.112 381.957 67.9533 381.453 67.636C380.949 67.3187 380.561 66.8847 380.291 66.334C380.029 65.7833 379.899 65.1627 379.899 64.472C379.899 63.7813 380.029 63.1607 380.291 62.61C380.561 62.0593 380.949 61.6253 381.453 61.308C381.957 60.9907 382.568 60.832 383.287 60.832C383.772 60.832 384.229 60.9487 384.659 61.182C385.097 61.4153 385.424 61.7187 385.639 62.092V58.046H386.759V68H385.639V66.838C385.424 67.2207 385.097 67.5287 384.659 67.762C384.229 67.9953 383.767 68.112 383.273 68.112ZM383.399 67.104C383.865 67.104 384.271 66.9967 384.617 66.782C384.971 66.5673 385.247 66.2593 385.443 65.858C385.639 65.4567 385.737 64.9947 385.737 64.472C385.737 63.6693 385.522 63.03 385.093 62.554C384.673 62.078 384.108 61.84 383.399 61.84C382.932 61.84 382.521 61.9473 382.167 62.162C381.812 62.3767 381.537 62.6847 381.341 63.086C381.154 63.4873 381.061 63.9493 381.061 64.472C381.061 65.2747 381.271 65.914 381.691 66.39C382.12 66.866 382.689 67.104 383.399 67.104ZM391.888 68.112C391.207 68.112 390.6 67.9487 390.068 67.622C389.536 67.286 389.121 66.838 388.822 66.278C388.533 65.718 388.388 65.102 388.388 64.43C388.388 63.7393 388.523 63.1233 388.794 62.582C389.074 62.0407 389.466 61.616 389.97 61.308C390.483 60.9907 391.081 60.832 391.762 60.832C392.434 60.832 393.017 60.9767 393.512 61.266C394.007 61.5553 394.385 61.952 394.646 62.456C394.917 62.9507 395.052 63.5107 395.052 64.136C395.052 64.3133 395.043 64.4813 395.024 64.64H389.046V63.716H393.89C393.843 63.1187 393.633 62.6473 393.26 62.302C392.887 61.9567 392.387 61.784 391.762 61.784C391.295 61.784 390.889 61.8913 390.544 62.106C390.208 62.3113 389.951 62.61 389.774 63.002C389.597 63.394 389.508 63.8653 389.508 64.416C389.508 64.9293 389.611 65.3913 389.816 65.802C390.021 66.2127 390.306 66.5347 390.67 66.768C391.034 67.0013 391.44 67.118 391.888 67.118C392.448 67.118 392.905 67.0013 393.26 66.768C393.624 66.5253 393.862 66.18 393.974 65.732H395.122C395.001 66.4507 394.646 67.0293 394.058 67.468C393.479 67.8973 392.756 68.112 391.888 68.112ZM399.638 68.112C398.928 68.112 398.322 67.9533 397.818 67.636C397.314 67.3187 396.926 66.8847 396.656 66.334C396.394 65.7833 396.264 65.1627 396.264 64.472C396.264 63.7813 396.394 63.1607 396.656 62.61C396.926 62.0593 397.314 61.6253 397.818 61.308C398.322 60.9907 398.933 60.832 399.652 60.832C400.137 60.832 400.594 60.9487 401.024 61.182C401.462 61.4153 401.789 61.7187 402.004 62.092V58.046H403.124V68H402.004V66.838C401.789 67.2207 401.462 67.5287 401.024 67.762C400.594 67.9953 400.132 68.112 399.638 68.112ZM399.764 67.104C400.23 67.104 400.636 66.9967 400.982 66.782C401.336 66.5673 401.612 66.2593 401.808 65.858C402.004 65.4567 402.102 64.9947 402.102 64.472C402.102 63.6693 401.887 63.03 401.458 62.554C401.038 62.078 400.473 61.84 399.764 61.84C399.297 61.84 398.886 61.9473 398.532 62.162C398.177 62.3767 397.902 62.6847 397.706 63.086C397.519 63.4873 397.426 63.9493 397.426 64.472C397.426 65.2747 397.636 65.914 398.056 66.39C398.485 66.866 399.054 67.104 399.764 67.104ZM406.335 66.698V68H405.061V66.698H406.335Z" fill="#5F605B"/>
<ellipse cx="247.884" cy="127.298" rx="35.1006" ry="35.2978" fill="#1E1E1E" fill-opacity="0.03"/>
<ellipse cx="203.031" cy="257.9" rx="13.6502" ry="13.7269" fill="#1E1E1E" fill-opacity="0.03"/>
<ellipse cx="375.41" cy="108.08" rx="15.9903" ry="16.0801" fill="#1E1E1E" fill-opacity="0.03"/>
<g filter="url(#filter0_d_5_2015)">
<rect x="275.049" y="152.157" width="100.998" height="130.843" rx="10.813" fill="white"/>
</g>
<rect x="286.721" y="163.976" width="75.1197" height="6.50599" rx="3.25299" fill="url(#paint0_linear_5_2015)"/>
<rect x="286.721" y="178.023" width="75.1197" height="6.50599" rx="3.25299" fill="url(#paint1_linear_5_2015)"/>
<rect x="286.721" y="192.071" width="75.1197" height="6.50599" rx="3.25299" fill="url(#paint2_linear_5_2015)"/>
<rect x="286.721" y="206.119" width="75.1197" height="6.50599" rx="3.25299" fill="url(#paint3_linear_5_2015)"/>
<rect x="286.721" y="220.167" width="75.1197" height="6.50599" rx="3.25299" fill="url(#paint4_linear_5_2015)"/>
<rect x="286.721" y="234.214" width="75.1197" height="6.50599" rx="3.25299" fill="url(#paint5_linear_5_2015)"/>
<rect x="286.721" y="248.262" width="75.1197" height="6.50599" rx="3.25299" fill="url(#paint6_linear_5_2015)"/>
<rect x="286.721" y="262.31" width="75.1197" height="6.50599" rx="3.25299" fill="url(#paint7_linear_5_2015)"/>
<g filter="url(#filter1_d_5_2015)">
<rect x="235.955" y="124.16" width="100.998" height="130.843" rx="10.813" fill="white"/>
</g>
<ellipse cx="258.07" cy="152.533" rx="11.6813" ry="11.7469" fill="url(#paint8_linear_5_2015)"/>
<rect x="283.041" y="143.318" width="38.4584" height="6.50599" rx="3.25299" fill="url(#paint9_linear_5_2015)"/>
<rect x="246.389" y="175.124" width="75.1197" height="6.50599" rx="3.25299" fill="url(#paint10_linear_5_2015)"/>
<rect x="246.389" y="189.172" width="75.1197" height="6.50599" rx="3.25299" fill="url(#paint11_linear_5_2015)"/>
<rect x="246.389" y="203.219" width="75.1197" height="6.50599" rx="3.25299" fill="url(#paint12_linear_5_2015)"/>
<rect x="246.389" y="217.267" width="75.1197" height="6.50599" rx="3.25299" fill="url(#paint13_linear_5_2015)"/>
<rect x="246.389" y="231.315" width="75.1197" height="6.50599" rx="3.25299" fill="url(#paint14_linear_5_2015)"/>
<rect x="283.041" y="154.523" width="20.4872" height="6.50599" rx="3.25299" fill="url(#paint15_linear_5_2015)"/>
<path d="M149.828 307.2H151.032V317H149.828V307.2ZM143.444 307.2H144.634V317H143.444V307.2ZM144.424 311.4H150.052V312.492H144.424V311.4ZM155.303 317.112C154.817 317.112 154.388 317.023 154.015 316.846C153.651 316.669 153.366 316.421 153.161 316.104C152.965 315.777 152.867 315.404 152.867 314.984C152.867 314.536 152.979 314.144 153.203 313.808C153.436 313.463 153.763 313.201 154.183 313.024C154.612 312.837 155.107 312.744 155.667 312.744H157.305C157.454 312.744 157.561 312.716 157.627 312.66C157.692 312.604 157.725 312.52 157.725 312.408C157.725 311.923 157.557 311.531 157.221 311.232C156.885 310.933 156.423 310.784 155.835 310.784C155.489 310.784 155.177 310.849 154.897 310.98C154.617 311.111 154.388 311.283 154.211 311.498C154.043 311.713 153.949 311.951 153.931 312.212H152.853C152.899 311.764 153.058 311.358 153.329 310.994C153.609 310.63 153.968 310.345 154.407 310.14C154.855 309.935 155.335 309.832 155.849 309.832C156.455 309.832 156.983 309.944 157.431 310.168C157.879 310.383 158.224 310.686 158.467 311.078C158.719 311.47 158.845 311.927 158.845 312.45V317H157.725V315.782L157.641 315.922C157.501 316.165 157.309 316.375 157.067 316.552C156.833 316.729 156.567 316.869 156.269 316.972C155.97 317.065 155.648 317.112 155.303 317.112ZM155.471 316.16C156.18 316.16 156.731 315.955 157.123 315.544C157.524 315.124 157.725 314.55 157.725 313.822V313.668H155.737C155.214 313.668 154.794 313.785 154.477 314.018C154.169 314.251 154.015 314.569 154.015 314.97C154.015 315.334 154.145 315.623 154.407 315.838C154.677 316.053 155.032 316.16 155.471 316.16ZM160.873 309.944H161.993V311.302C162.179 310.817 162.473 310.453 162.875 310.21C163.285 309.958 163.771 309.832 164.331 309.832C164.853 309.832 165.311 309.953 165.703 310.196C166.104 310.429 166.412 310.761 166.627 311.19C166.851 311.619 166.963 312.119 166.963 312.688V317H165.829V312.87C165.829 312.263 165.67 311.778 165.353 311.414C165.035 311.041 164.611 310.854 164.079 310.854C163.677 310.854 163.318 310.957 163.001 311.162C162.683 311.358 162.436 311.633 162.259 311.988C162.081 312.343 161.993 312.744 161.993 313.192V317H160.873V309.944ZM169.442 318.89H172.704C173.161 318.89 173.534 318.736 173.824 318.428C174.113 318.129 174.258 317.742 174.258 317.266V316.02C174.09 316.347 173.786 316.613 173.348 316.818C172.909 317.014 172.424 317.112 171.892 317.112C171.182 317.112 170.576 316.953 170.072 316.636C169.568 316.319 169.18 315.885 168.91 315.334C168.648 314.783 168.518 314.163 168.518 313.472C168.518 312.781 168.648 312.161 168.91 311.61C169.18 311.059 169.568 310.625 170.072 310.308C170.576 309.991 171.187 309.832 171.906 309.832C172.382 309.832 172.834 309.939 173.264 310.154C173.702 310.369 174.034 310.644 174.258 310.98V309.944H175.378V317.308C175.378 317.812 175.27 318.255 175.056 318.638C174.841 319.021 174.533 319.319 174.132 319.534C173.73 319.749 173.278 319.856 172.774 319.856H169.442V318.89ZM172.018 316.104C172.484 316.104 172.89 315.997 173.236 315.782C173.59 315.567 173.866 315.259 174.062 314.858C174.258 314.457 174.356 313.995 174.356 313.472C174.356 312.669 174.141 312.03 173.712 311.554C173.292 311.078 172.727 310.84 172.018 310.84C171.551 310.84 171.14 310.947 170.786 311.162C170.431 311.377 170.156 311.685 169.96 312.086C169.773 312.487 169.68 312.949 169.68 313.472C169.68 314.275 169.89 314.914 170.31 315.39C170.739 315.866 171.308 316.104 172.018 316.104ZM183.661 317C183.213 317 182.821 316.911 182.485 316.734C182.158 316.557 181.901 316.3 181.715 315.964C181.537 315.628 181.449 315.236 181.449 314.788V310.938H179.979V309.944H181.449V307.69H182.569V309.944H184.739V310.938H182.569V314.76C182.569 315.152 182.667 315.46 182.863 315.684C183.068 315.899 183.348 316.006 183.703 316.006H184.739V317H183.661ZM186.152 309.944H187.272V317H186.152V309.944ZM187.356 307.046V308.614H186.068V307.046H187.356ZM189.867 318.89H193.129C193.587 318.89 193.96 318.736 194.249 318.428C194.539 318.129 194.683 317.742 194.683 317.266V316.02C194.515 316.347 194.212 316.613 193.773 316.818C193.335 317.014 192.849 317.112 192.317 317.112C191.608 317.112 191.001 316.953 190.497 316.636C189.993 316.319 189.606 315.885 189.335 315.334C189.074 314.783 188.943 314.163 188.943 313.472C188.943 312.781 189.074 312.161 189.335 311.61C189.606 311.059 189.993 310.625 190.497 310.308C191.001 309.991 191.613 309.832 192.331 309.832C192.807 309.832 193.26 309.939 193.689 310.154C194.128 310.369 194.459 310.644 194.683 310.98V309.944H195.803V317.308C195.803 317.812 195.696 318.255 195.481 318.638C195.267 319.021 194.959 319.319 194.557 319.534C194.156 319.749 193.703 319.856 193.199 319.856H189.867V318.89ZM192.443 316.104C192.91 316.104 193.316 315.997 193.661 315.782C194.016 315.567 194.291 315.259 194.487 314.858C194.683 314.457 194.781 313.995 194.781 313.472C194.781 312.669 194.567 312.03 194.137 311.554C193.717 311.078 193.153 310.84 192.443 310.84C191.977 310.84 191.566 310.947 191.211 311.162C190.857 311.377 190.581 311.685 190.385 312.086C190.199 312.487 190.105 312.949 190.105 313.472C190.105 314.275 190.315 314.914 190.735 315.39C191.165 315.866 191.734 316.104 192.443 316.104ZM197.937 307.046H199.057V311.302C199.244 310.817 199.538 310.453 199.939 310.21C200.35 309.958 200.835 309.832 201.395 309.832C201.918 309.832 202.375 309.953 202.767 310.196C203.168 310.429 203.476 310.761 203.691 311.19C203.915 311.619 204.027 312.119 204.027 312.688V317H202.893V312.87C202.893 312.263 202.734 311.778 202.417 311.414C202.1 311.041 201.675 310.854 201.143 310.854C200.742 310.854 200.382 310.957 200.065 311.162C199.748 311.358 199.5 311.633 199.323 311.988C199.146 312.343 199.057 312.744 199.057 313.192V317H197.937V307.046ZM208.735 317C208.287 317 207.895 316.911 207.559 316.734C207.232 316.557 206.975 316.3 206.789 315.964C206.611 315.628 206.523 315.236 206.523 314.788V310.938H205.053V309.944H206.523V307.69H207.643V309.944H209.813V310.938H207.643V314.76C207.643 315.152 207.741 315.46 207.937 315.684C208.142 315.899 208.422 316.006 208.777 316.006H209.813V317H208.735ZM214.211 312.702H221.407V313.682H214.211V312.702ZM229.297 317C228.849 317 228.457 316.911 228.121 316.734C227.795 316.557 227.538 316.3 227.351 315.964C227.174 315.628 227.085 315.236 227.085 314.788V310.938H225.615V309.944H227.085V307.69H228.205V309.944H230.375V310.938H228.205V314.76C228.205 315.152 228.303 315.46 228.499 315.684C228.705 315.899 228.985 316.006 229.339 316.006H230.375V317H229.297ZM231.789 307.046H232.909V311.302C233.095 310.817 233.389 310.453 233.791 310.21C234.201 309.958 234.687 309.832 235.247 309.832C235.769 309.832 236.227 309.953 236.619 310.196C237.02 310.429 237.328 310.761 237.543 311.19C237.767 311.619 237.879 312.119 237.879 312.688V317H236.745V312.87C236.745 312.263 236.586 311.778 236.269 311.414C235.951 311.041 235.527 310.854 234.995 310.854C234.593 310.854 234.234 310.957 233.917 311.162C233.599 311.358 233.352 311.633 233.175 311.988C232.997 312.343 232.909 312.744 232.909 313.192V317H231.789V307.046ZM239.91 309.944H241.03V317H239.91V309.944ZM241.114 307.046V308.614H239.826V307.046H241.114ZM245.417 317.112C244.867 317.112 244.391 317.019 243.989 316.832C243.588 316.645 243.271 316.375 243.037 316.02C242.804 315.665 242.673 315.241 242.645 314.746H243.695C243.742 315.185 243.915 315.53 244.213 315.782C244.512 316.025 244.913 316.146 245.417 316.146C245.875 316.146 246.239 316.043 246.509 315.838C246.789 315.623 246.929 315.339 246.929 314.984C246.929 314.723 246.855 314.522 246.705 314.382C246.556 314.233 246.369 314.125 246.145 314.06C245.921 313.995 245.604 313.925 245.193 313.85C244.689 313.766 244.279 313.673 243.961 313.57C243.644 313.458 243.373 313.276 243.149 313.024C242.925 312.763 242.813 312.394 242.813 311.918C242.813 311.507 242.921 311.148 243.135 310.84C243.35 310.523 243.644 310.275 244.017 310.098C244.391 309.921 244.82 309.832 245.305 309.832C245.837 309.832 246.295 309.916 246.677 310.084C247.069 310.252 247.377 310.499 247.601 310.826C247.825 311.153 247.956 311.54 247.993 311.988H246.929C246.892 311.615 246.724 311.321 246.425 311.106C246.136 310.882 245.767 310.77 245.319 310.77C244.927 310.77 244.591 310.868 244.311 311.064C244.041 311.26 243.905 311.521 243.905 311.848C243.905 312.091 243.975 312.282 244.115 312.422C244.265 312.562 244.451 312.665 244.675 312.73C244.899 312.786 245.203 312.842 245.585 312.898C246.108 312.982 246.533 313.08 246.859 313.192C247.186 313.295 247.461 313.486 247.685 313.766C247.919 314.046 248.035 314.438 248.035 314.942C248.035 315.381 247.928 315.763 247.713 316.09C247.508 316.417 247.209 316.669 246.817 316.846C246.425 317.023 245.959 317.112 245.417 317.112ZM255.596 317.112C255.083 317.112 254.625 316.995 254.224 316.762C253.823 316.519 253.515 316.183 253.3 315.754C253.085 315.325 252.978 314.825 252.978 314.256V309.944H254.098V314.074C254.098 314.681 254.257 315.171 254.574 315.544C254.901 315.908 255.33 316.09 255.862 316.09C256.254 316.09 256.609 315.992 256.926 315.796C257.243 315.591 257.491 315.311 257.668 314.956C257.845 314.601 257.934 314.2 257.934 313.752V309.944H259.054V317H257.934V315.642C257.747 316.127 257.449 316.496 257.038 316.748C256.637 316.991 256.156 317.112 255.596 317.112ZM263.423 317.112C262.872 317.112 262.396 317.019 261.995 316.832C261.594 316.645 261.276 316.375 261.043 316.02C260.81 315.665 260.679 315.241 260.651 314.746H261.701C261.748 315.185 261.92 315.53 262.219 315.782C262.518 316.025 262.919 316.146 263.423 316.146C263.88 316.146 264.244 316.043 264.515 315.838C264.795 315.623 264.935 315.339 264.935 314.984C264.935 314.723 264.86 314.522 264.711 314.382C264.562 314.233 264.375 314.125 264.151 314.06C263.927 313.995 263.61 313.925 263.199 313.85C262.695 313.766 262.284 313.673 261.967 313.57C261.65 313.458 261.379 313.276 261.155 313.024C260.931 312.763 260.819 312.394 260.819 311.918C260.819 311.507 260.926 311.148 261.141 310.84C261.356 310.523 261.65 310.275 262.023 310.098C262.396 309.921 262.826 309.832 263.311 309.832C263.843 309.832 264.3 309.916 264.683 310.084C265.075 310.252 265.383 310.499 265.607 310.826C265.831 311.153 265.962 311.54 265.999 311.988H264.935C264.898 311.615 264.73 311.321 264.431 311.106C264.142 310.882 263.773 310.77 263.325 310.77C262.933 310.77 262.597 310.868 262.317 311.064C262.046 311.26 261.911 311.521 261.911 311.848C261.911 312.091 261.981 312.282 262.121 312.422C262.27 312.562 262.457 312.665 262.681 312.73C262.905 312.786 263.208 312.842 263.591 312.898C264.114 312.982 264.538 313.08 264.865 313.192C265.192 313.295 265.467 313.486 265.691 313.766C265.924 314.046 266.041 314.438 266.041 314.942C266.041 315.381 265.934 315.763 265.719 316.09C265.514 316.417 265.215 316.669 264.823 316.846C264.431 317.023 263.964 317.112 263.423 317.112ZM270.239 317.112C269.725 317.112 269.268 316.995 268.867 316.762C268.465 316.519 268.157 316.183 267.943 315.754C267.728 315.325 267.621 314.825 267.621 314.256V309.944H268.741V314.074C268.741 314.681 268.899 315.171 269.217 315.544C269.543 315.908 269.973 316.09 270.505 316.09C270.897 316.09 271.251 315.992 271.569 315.796C271.886 315.591 272.133 315.311 272.311 314.956C272.488 314.601 272.577 314.2 272.577 313.752V309.944H273.697V317H272.577V315.642C272.39 316.127 272.091 316.496 271.681 316.748C271.279 316.991 270.799 317.112 270.239 317.112ZM277.926 317.112C277.44 317.112 277.011 317.023 276.638 316.846C276.274 316.669 275.989 316.421 275.784 316.104C275.588 315.777 275.49 315.404 275.49 314.984C275.49 314.536 275.602 314.144 275.826 313.808C276.059 313.463 276.386 313.201 276.806 313.024C277.235 312.837 277.73 312.744 278.29 312.744H279.928C280.077 312.744 280.184 312.716 280.25 312.66C280.315 312.604 280.348 312.52 280.348 312.408C280.348 311.923 280.18 311.531 279.844 311.232C279.508 310.933 279.046 310.784 278.458 310.784C278.112 310.784 277.8 310.849 277.52 310.98C277.24 311.111 277.011 311.283 276.834 311.498C276.666 311.713 276.572 311.951 276.554 312.212H275.476C275.522 311.764 275.681 311.358 275.952 310.994C276.232 310.63 276.591 310.345 277.03 310.14C277.478 309.935 277.958 309.832 278.472 309.832C279.078 309.832 279.606 309.944 280.054 310.168C280.502 310.383 280.847 310.686 281.09 311.078C281.342 311.47 281.468 311.927 281.468 312.45V317H280.348V315.782L280.264 315.922C280.124 316.165 279.932 316.375 279.69 316.552C279.456 316.729 279.19 316.869 278.892 316.972C278.593 317.065 278.271 317.112 277.926 317.112ZM278.094 316.16C278.803 316.16 279.354 315.955 279.746 315.544C280.147 315.124 280.348 314.55 280.348 313.822V313.668H278.36C277.837 313.668 277.417 313.785 277.1 314.018C276.792 314.251 276.638 314.569 276.638 314.97C276.638 315.334 276.768 315.623 277.03 315.838C277.3 316.053 277.655 316.16 278.094 316.16ZM283.496 307.046H284.616V317H283.496V307.046ZM286.75 307.046H287.87V317H286.75V307.046ZM291.809 317.168L289.233 309.944H290.395L292.369 315.67L294.329 309.944H295.491L291.963 319.856H290.843L291.809 317.168ZM303.002 317C302.554 317 302.162 316.911 301.826 316.734C301.5 316.557 301.243 316.3 301.056 315.964C300.879 315.628 300.79 315.236 300.79 314.788V310.938H299.32V309.944H300.79V307.69H301.91V309.944H304.08V310.938H301.91V314.76C301.91 315.152 302.008 315.46 302.204 315.684C302.41 315.899 302.69 316.006 303.044 316.006H304.08V317H303.002ZM307.594 317.112C307.108 317.112 306.679 317.023 306.306 316.846C305.942 316.669 305.657 316.421 305.452 316.104C305.256 315.777 305.158 315.404 305.158 314.984C305.158 314.536 305.27 314.144 305.494 313.808C305.727 313.463 306.054 313.201 306.474 313.024C306.903 312.837 307.398 312.744 307.958 312.744H309.596C309.745 312.744 309.852 312.716 309.918 312.66C309.983 312.604 310.016 312.52 310.016 312.408C310.016 311.923 309.848 311.531 309.512 311.232C309.176 310.933 308.714 310.784 308.126 310.784C307.78 310.784 307.468 310.849 307.188 310.98C306.908 311.111 306.679 311.283 306.502 311.498C306.334 311.713 306.24 311.951 306.222 312.212H305.144C305.19 311.764 305.349 311.358 305.62 310.994C305.9 310.63 306.259 310.345 306.698 310.14C307.146 309.935 307.626 309.832 308.14 309.832C308.746 309.832 309.274 309.944 309.722 310.168C310.17 310.383 310.515 310.686 310.758 311.078C311.01 311.47 311.136 311.927 311.136 312.45V317H310.016V315.782L309.932 315.922C309.792 316.165 309.6 316.375 309.358 316.552C309.124 316.729 308.858 316.869 308.56 316.972C308.261 317.065 307.939 317.112 307.594 317.112ZM307.762 316.16C308.471 316.16 309.022 315.955 309.414 315.544C309.815 315.124 310.016 314.55 310.016 313.822V313.668H308.028C307.505 313.668 307.085 313.785 306.768 314.018C306.46 314.251 306.306 314.569 306.306 314.97C306.306 315.334 306.436 315.623 306.698 315.838C306.968 316.053 307.323 316.16 307.762 316.16ZM313.892 313.318L317.616 309.944H319.114L313.878 314.69L313.892 313.318ZM313.164 307.046H314.298V317H313.164V307.046ZM314.914 313.01L315.922 312.506L319.38 317H317.966L314.914 313.01ZM323.009 317.112C322.328 317.112 321.721 316.949 321.189 316.622C320.657 316.286 320.242 315.838 319.943 315.278C319.654 314.718 319.509 314.102 319.509 313.43C319.509 312.739 319.645 312.123 319.915 311.582C320.195 311.041 320.587 310.616 321.091 310.308C321.605 309.991 322.202 309.832 322.883 309.832C323.555 309.832 324.139 309.977 324.633 310.266C325.128 310.555 325.506 310.952 325.767 311.456C326.038 311.951 326.173 312.511 326.173 313.136C326.173 313.313 326.164 313.481 326.145 313.64H320.167V312.716H325.011C324.965 312.119 324.755 311.647 324.381 311.302C324.008 310.957 323.509 310.784 322.883 310.784C322.417 310.784 322.011 310.891 321.665 311.106C321.329 311.311 321.073 311.61 320.895 312.002C320.718 312.394 320.629 312.865 320.629 313.416C320.629 313.929 320.732 314.391 320.937 314.802C321.143 315.213 321.427 315.535 321.791 315.768C322.155 316.001 322.561 316.118 323.009 316.118C323.569 316.118 324.027 316.001 324.381 315.768C324.745 315.525 324.983 315.18 325.095 314.732H326.243C326.122 315.451 325.767 316.029 325.179 316.468C324.601 316.897 323.877 317.112 323.009 317.112ZM330.101 317.112C329.55 317.112 329.074 317.019 328.673 316.832C328.272 316.645 327.954 316.375 327.721 316.02C327.488 315.665 327.357 315.241 327.329 314.746H328.379C328.426 315.185 328.598 315.53 328.897 315.782C329.196 316.025 329.597 316.146 330.101 316.146C330.558 316.146 330.922 316.043 331.193 315.838C331.473 315.623 331.613 315.339 331.613 314.984C331.613 314.723 331.538 314.522 331.389 314.382C331.24 314.233 331.053 314.125 330.829 314.06C330.605 313.995 330.288 313.925 329.877 313.85C329.373 313.766 328.962 313.673 328.645 313.57C328.328 313.458 328.057 313.276 327.833 313.024C327.609 312.763 327.497 312.394 327.497 311.918C327.497 311.507 327.604 311.148 327.819 310.84C328.034 310.523 328.328 310.275 328.701 310.098C329.074 309.921 329.504 309.832 329.989 309.832C330.521 309.832 330.978 309.916 331.361 310.084C331.753 310.252 332.061 310.499 332.285 310.826C332.509 311.153 332.64 311.54 332.677 311.988H331.613C331.576 311.615 331.408 311.321 331.109 311.106C330.82 310.882 330.451 310.77 330.003 310.77C329.611 310.77 329.275 310.868 328.995 311.064C328.724 311.26 328.589 311.521 328.589 311.848C328.589 312.091 328.659 312.282 328.799 312.422C328.948 312.562 329.135 312.665 329.359 312.73C329.583 312.786 329.886 312.842 330.269 312.898C330.792 312.982 331.216 313.08 331.543 313.192C331.87 313.295 332.145 313.486 332.369 313.766C332.602 314.046 332.719 314.438 332.719 314.942C332.719 315.381 332.612 315.763 332.397 316.09C332.192 316.417 331.893 316.669 331.501 316.846C331.109 317.023 330.642 317.112 330.101 317.112ZM340.28 317.112C339.766 317.112 339.309 316.995 338.908 316.762C338.506 316.519 338.198 316.183 337.984 315.754C337.769 315.325 337.662 314.825 337.662 314.256V309.944H338.782V314.074C338.782 314.681 338.94 315.171 339.258 315.544C339.584 315.908 340.014 316.09 340.546 316.09C340.938 316.09 341.292 315.992 341.61 315.796C341.927 315.591 342.174 315.311 342.352 314.956C342.529 314.601 342.618 314.2 342.618 313.752V309.944H343.738V317H342.618V315.642C342.431 316.127 342.132 316.496 341.722 316.748C341.32 316.991 340.84 317.112 340.28 317.112ZM345.867 309.944H346.987V311.302C347.173 310.817 347.467 310.453 347.869 310.21C348.279 309.958 348.765 309.832 349.325 309.832C349.847 309.832 350.305 309.953 350.697 310.196C351.098 310.429 351.406 310.761 351.621 311.19C351.845 311.619 351.957 312.119 351.957 312.688V317H350.823V312.87C350.823 312.263 350.664 311.778 350.347 311.414C350.029 311.041 349.605 310.854 349.073 310.854C348.671 310.854 348.312 310.957 347.995 311.162C347.677 311.358 347.43 311.633 347.253 311.988C347.075 312.343 346.987 312.744 346.987 313.192V317H345.867V309.944ZM356.886 317.112C356.176 317.112 355.57 316.953 355.066 316.636C354.562 316.319 354.174 315.885 353.904 315.334C353.642 314.783 353.512 314.163 353.512 313.472C353.512 312.781 353.642 312.161 353.904 311.61C354.174 311.059 354.562 310.625 355.066 310.308C355.57 309.991 356.181 309.832 356.9 309.832C357.385 309.832 357.842 309.949 358.272 310.182C358.71 310.415 359.037 310.719 359.252 311.092V307.046H360.372V317H359.252V315.838C359.037 316.221 358.71 316.529 358.272 316.762C357.842 316.995 357.38 317.112 356.886 317.112ZM357.012 316.104C357.478 316.104 357.884 315.997 358.23 315.782C358.584 315.567 358.86 315.259 359.056 314.858C359.252 314.457 359.35 313.995 359.35 313.472C359.35 312.669 359.135 312.03 358.706 311.554C358.286 311.078 357.721 310.84 357.012 310.84C356.545 310.84 356.134 310.947 355.78 311.162C355.425 311.377 355.15 311.685 354.954 312.086C354.767 312.487 354.674 312.949 354.674 313.472C354.674 314.275 354.884 314.914 355.304 315.39C355.733 315.866 356.302 316.104 357.012 316.104ZM365.501 317.112C364.82 317.112 364.213 316.949 363.681 316.622C363.149 316.286 362.734 315.838 362.435 315.278C362.146 314.718 362.001 314.102 362.001 313.43C362.001 312.739 362.137 312.123 362.407 311.582C362.687 311.041 363.079 310.616 363.583 310.308C364.097 309.991 364.694 309.832 365.375 309.832C366.047 309.832 366.631 309.977 367.125 310.266C367.62 310.555 367.998 310.952 368.259 311.456C368.53 311.951 368.665 312.511 368.665 313.136C368.665 313.313 368.656 313.481 368.637 313.64H362.659V312.716H367.503C367.457 312.119 367.247 311.647 366.873 311.302C366.5 310.957 366.001 310.784 365.375 310.784C364.909 310.784 364.503 310.891 364.157 311.106C363.821 311.311 363.565 311.61 363.387 312.002C363.21 312.394 363.121 312.865 363.121 313.416C363.121 313.929 363.224 314.391 363.429 314.802C363.635 315.213 363.919 315.535 364.283 315.768C364.647 316.001 365.053 316.118 365.501 316.118C366.061 316.118 366.519 316.001 366.873 315.768C367.237 315.525 367.475 315.18 367.587 314.732H368.735C368.614 315.451 368.259 316.029 367.671 316.468C367.093 316.897 366.369 317.112 365.501 317.112ZM370.353 309.944H371.473V311.372C371.622 310.887 371.851 310.527 372.159 310.294C372.476 310.061 372.887 309.944 373.391 309.944H374.287V310.938H373.321C372.649 310.938 372.173 311.204 371.893 311.736C371.613 312.259 371.473 312.977 371.473 313.892V317H370.353V309.944ZM381.012 317.112C380.526 317.112 380.097 317.023 379.724 316.846C379.36 316.669 379.075 316.421 378.87 316.104C378.674 315.777 378.576 315.404 378.576 314.984C378.576 314.536 378.688 314.144 378.912 313.808C379.145 313.463 379.472 313.201 379.892 313.024C380.321 312.837 380.816 312.744 381.376 312.744H383.014C383.163 312.744 383.27 312.716 383.336 312.66C383.401 312.604 383.434 312.52 383.434 312.408C383.434 311.923 383.266 311.531 382.93 311.232C382.594 310.933 382.132 310.784 381.544 310.784C381.198 310.784 380.886 310.849 380.606 310.98C380.326 311.111 380.097 311.283 379.92 311.498C379.752 311.713 379.658 311.951 379.64 312.212H378.562C378.608 311.764 378.767 311.358 379.038 310.994C379.318 310.63 379.677 310.345 380.116 310.14C380.564 309.935 381.044 309.832 381.558 309.832C382.164 309.832 382.692 309.944 383.14 310.168C383.588 310.383 383.933 310.686 384.176 311.078C384.428 311.47 384.554 311.927 384.554 312.45V317H383.434V315.782L383.35 315.922C383.21 316.165 383.018 316.375 382.776 316.552C382.542 316.729 382.276 316.869 381.978 316.972C381.679 317.065 381.357 317.112 381.012 317.112ZM381.18 316.16C381.889 316.16 382.44 315.955 382.832 315.544C383.233 315.124 383.434 314.55 383.434 313.822V313.668H381.446C380.923 313.668 380.503 313.785 380.186 314.018C379.878 314.251 379.724 314.569 379.724 314.97C379.724 315.334 379.854 315.623 380.116 315.838C380.386 316.053 380.741 316.16 381.18 316.16ZM389.945 309.944H391.079V311.302C391.21 310.854 391.466 310.499 391.849 310.238C392.232 309.967 392.689 309.832 393.221 309.832C393.79 309.832 394.285 309.967 394.705 310.238C395.125 310.499 395.4 310.868 395.531 311.344C395.662 310.915 395.942 310.555 396.371 310.266C396.81 309.977 397.286 309.832 397.799 309.832C398.303 309.832 398.742 309.944 399.115 310.168C399.488 310.383 399.773 310.695 399.969 311.106C400.165 311.517 400.263 312.002 400.263 312.562V317H399.129V312.856C399.129 312.249 398.984 311.764 398.695 311.4C398.415 311.027 398.028 310.84 397.533 310.84C397.16 310.84 396.828 310.952 396.539 311.176C396.259 311.391 396.04 311.675 395.881 312.03C395.732 312.385 395.657 312.767 395.657 313.178V317H394.537V312.856C394.537 312.249 394.392 311.764 394.103 311.4C393.823 311.027 393.44 310.84 392.955 310.84C392.582 310.84 392.25 310.952 391.961 311.176C391.672 311.391 391.452 311.675 391.303 312.03C391.154 312.385 391.079 312.767 391.079 313.178V317H389.945V309.944ZM402.291 309.944H403.411V317H402.291V309.944ZM403.495 307.046V308.614H402.207V307.046H403.495ZM405.558 309.944H406.678V311.302C406.865 310.817 407.159 310.453 407.56 310.21C407.971 309.958 408.456 309.832 409.016 309.832C409.539 309.832 409.996 309.953 410.388 310.196C410.789 310.429 411.097 310.761 411.312 311.19C411.536 311.619 411.648 312.119 411.648 312.688V317H410.514V312.87C410.514 312.263 410.355 311.778 410.038 311.414C409.721 311.041 409.296 310.854 408.764 310.854C408.363 310.854 408.003 310.957 407.686 311.162C407.369 311.358 407.121 311.633 406.944 311.988C406.767 312.343 406.678 312.744 406.678 313.192V317H405.558V309.944ZM416.213 317.112C415.7 317.112 415.243 316.995 414.841 316.762C414.44 316.519 414.132 316.183 413.917 315.754C413.703 315.325 413.595 314.825 413.595 314.256V309.944H414.715V314.074C414.715 314.681 414.874 315.171 415.191 315.544C415.518 315.908 415.947 316.09 416.479 316.09C416.871 316.09 417.226 315.992 417.543 315.796C417.861 315.591 418.108 315.311 418.285 314.956C418.463 314.601 418.551 314.2 418.551 313.752V309.944H419.671V317H418.551V315.642C418.365 316.127 418.066 316.496 417.655 316.748C417.254 316.991 416.773 317.112 416.213 317.112ZM424.586 317C424.138 317 423.746 316.911 423.41 316.734C423.084 316.557 422.827 316.3 422.64 315.964C422.463 315.628 422.374 315.236 422.374 314.788V310.938H420.904V309.944H422.374V307.69H423.494V309.944H425.664V310.938H423.494V314.76C423.494 315.152 423.592 315.46 423.788 315.684C423.994 315.899 424.274 316.006 424.628 316.006H425.664V317H424.586ZM429.937 317.112C429.256 317.112 428.649 316.949 428.117 316.622C427.585 316.286 427.17 315.838 426.871 315.278C426.582 314.718 426.437 314.102 426.437 313.43C426.437 312.739 426.572 312.123 426.843 311.582C427.123 311.041 427.515 310.616 428.019 310.308C428.532 309.991 429.13 309.832 429.811 309.832C430.483 309.832 431.066 309.977 431.561 310.266C432.056 310.555 432.434 310.952 432.695 311.456C432.966 311.951 433.101 312.511 433.101 313.136C433.101 313.313 433.092 313.481 433.073 313.64H427.095V312.716H431.939C431.892 312.119 431.682 311.647 431.309 311.302C430.936 310.957 430.436 310.784 429.811 310.784C429.344 310.784 428.938 310.891 428.593 311.106C428.257 311.311 428 311.61 427.823 312.002C427.646 312.394 427.557 312.865 427.557 313.416C427.557 313.929 427.66 314.391 427.865 314.802C428.07 315.213 428.355 315.535 428.719 315.768C429.083 316.001 429.489 316.118 429.937 316.118C430.497 316.118 430.954 316.001 431.309 315.768C431.673 315.525 431.911 315.18 432.023 314.732H433.171C433.05 315.451 432.695 316.029 432.107 316.468C431.528 316.897 430.805 317.112 429.937 317.112ZM435.867 315.698V317H434.593V315.698H435.867Z" fill="#5F605B"/>
<rect x="149" y="344" width="284" height="19" rx="9.5" fill="#EFEFEF"/>
<g filter="url(#filter2_d_5_2015)">
<rect x="151" y="346" width="192" height="15" rx="7.5" fill="url(#paint16_linear_5_2015)"/>
</g>
<path d="M240.265 386.296C239.574 386.296 238.981 386.151 238.487 385.862C237.992 385.572 237.614 385.162 237.353 384.63C237.101 384.098 236.975 383.468 236.975 382.74C236.975 381.769 237.185 380.78 237.605 379.772C238.034 378.764 238.65 377.928 239.453 377.266C240.265 376.603 241.203 376.272 242.267 376.272C242.901 376.272 243.447 376.393 243.905 376.636C244.371 376.878 244.721 377.214 244.955 377.644C245.188 378.073 245.281 378.568 245.235 379.128H243.289C243.289 378.801 243.158 378.535 242.897 378.33C242.645 378.115 242.309 378.008 241.889 378.008C241.487 378.008 241.109 378.124 240.755 378.358C240.409 378.591 240.106 378.908 239.845 379.31C239.593 379.711 239.401 380.168 239.271 380.682C239.551 380.364 239.905 380.112 240.335 379.926C240.764 379.739 241.207 379.646 241.665 379.646C242.197 379.646 242.668 379.753 243.079 379.968C243.499 380.182 243.83 380.495 244.073 380.906C244.315 381.316 244.437 381.802 244.437 382.362C244.437 383.071 244.255 383.724 243.891 384.322C243.527 384.919 243.023 385.4 242.379 385.764C241.744 386.118 241.039 386.296 240.265 386.296ZM240.475 384.518C240.801 384.518 241.105 384.434 241.385 384.266C241.665 384.088 241.889 383.855 242.057 383.566C242.225 383.276 242.309 382.968 242.309 382.642C242.309 382.259 242.192 381.956 241.959 381.732C241.725 381.498 241.417 381.382 241.035 381.382C240.708 381.382 240.4 381.466 240.111 381.634C239.831 381.802 239.607 382.03 239.439 382.32C239.271 382.6 239.187 382.903 239.187 383.23C239.187 383.491 239.243 383.72 239.355 383.916C239.467 384.102 239.616 384.252 239.803 384.364C239.999 384.466 240.223 384.518 240.475 384.518ZM248.428 386.296C247.765 386.296 247.187 386.16 246.692 385.89C246.207 385.619 245.843 385.255 245.6 384.798C245.357 384.331 245.278 383.818 245.362 383.258H247.35C247.35 383.622 247.471 383.916 247.714 384.14C247.957 384.364 248.297 384.476 248.736 384.476C249.1 384.476 249.422 384.387 249.702 384.21C249.991 384.023 250.211 383.78 250.36 383.482C250.519 383.183 250.598 382.875 250.598 382.558C250.598 382.175 250.477 381.872 250.234 381.648C250.001 381.414 249.674 381.298 249.254 381.298C248.918 381.298 248.619 381.363 248.358 381.494C248.106 381.615 247.863 381.802 247.63 382.054H245.768L247.672 376.384H253.286L252.936 378.19H248.89L248.218 380.094C248.442 379.935 248.694 379.809 248.974 379.716C249.263 379.613 249.609 379.562 250.01 379.562C250.551 379.562 251.027 379.678 251.438 379.912C251.849 380.136 252.166 380.453 252.39 380.864C252.623 381.274 252.74 381.741 252.74 382.264C252.74 383.01 252.549 383.692 252.166 384.308C251.783 384.924 251.261 385.409 250.598 385.764C249.945 386.118 249.221 386.296 248.428 386.296ZM262.106 376.384H263.982L255.106 386.184H253.244L262.106 376.384ZM256.058 380.752C255.704 380.752 255.386 380.677 255.106 380.528C254.836 380.369 254.626 380.159 254.476 379.898C254.327 379.627 254.252 379.319 254.252 378.974C254.252 378.526 254.364 378.096 254.588 377.686C254.812 377.266 255.12 376.925 255.512 376.664C255.914 376.402 256.352 376.272 256.828 376.272C257.192 376.272 257.51 376.346 257.78 376.496C258.051 376.645 258.261 376.855 258.41 377.126C258.56 377.387 258.634 377.695 258.634 378.05C258.634 378.488 258.522 378.918 258.298 379.338C258.074 379.758 257.762 380.098 257.36 380.36C256.968 380.621 256.534 380.752 256.058 380.752ZM256.24 379.52C256.427 379.52 256.6 379.464 256.758 379.352C256.926 379.23 257.057 379.072 257.15 378.876C257.253 378.68 257.304 378.47 257.304 378.246C257.304 378.022 257.244 377.84 257.122 377.7C257.01 377.56 256.852 377.49 256.646 377.49C256.46 377.49 256.287 377.55 256.128 377.672C255.97 377.784 255.844 377.942 255.75 378.148C255.666 378.344 255.624 378.558 255.624 378.792C255.624 379.016 255.676 379.193 255.778 379.324C255.89 379.454 256.044 379.52 256.24 379.52ZM260.398 386.296C260.034 386.296 259.712 386.221 259.432 386.072C259.162 385.913 258.952 385.703 258.802 385.442C258.662 385.171 258.592 384.863 258.592 384.518C258.592 384.07 258.704 383.64 258.928 383.23C259.152 382.81 259.46 382.469 259.852 382.208C260.244 381.946 260.683 381.816 261.168 381.816C261.523 381.816 261.836 381.89 262.106 382.04C262.377 382.189 262.587 382.399 262.736 382.67C262.886 382.931 262.96 383.239 262.96 383.594C262.96 384.032 262.848 384.462 262.624 384.882C262.4 385.302 262.092 385.642 261.7 385.904C261.308 386.165 260.874 386.296 260.398 386.296ZM260.58 385.064C260.767 385.064 260.94 385.008 261.098 384.896C261.266 384.774 261.397 384.616 261.49 384.42C261.584 384.224 261.63 384.014 261.63 383.79C261.63 383.566 261.57 383.388 261.448 383.258C261.336 383.118 261.178 383.048 260.972 383.048C260.795 383.048 260.627 383.108 260.468 383.23C260.31 383.342 260.184 383.496 260.09 383.692C259.997 383.888 259.95 384.102 259.95 384.336C259.95 384.56 260.006 384.737 260.118 384.868C260.23 384.998 260.384 385.064 260.58 385.064Z" fill="#0E0E0E"/>
<path d="M268.404 379.128H269.762L269.566 380.164C269.846 379.809 270.2 379.529 270.63 379.324C271.068 379.118 271.526 379.016 272.002 379.016C272.552 379.016 273.033 379.137 273.444 379.38C273.864 379.613 274.19 379.949 274.424 380.388C274.657 380.817 274.774 381.307 274.774 381.858C274.774 382.632 274.61 383.36 274.284 384.042C273.957 384.714 273.486 385.26 272.87 385.68C272.263 386.09 271.558 386.296 270.756 386.296C270.28 386.296 269.841 386.188 269.44 385.974C269.038 385.759 268.758 385.479 268.6 385.134L267.83 389.04H266.472L268.404 379.128ZM270.714 385.106C271.218 385.106 271.67 384.956 272.072 384.658C272.482 384.359 272.8 383.976 273.024 383.51C273.257 383.043 273.374 382.558 273.374 382.054C273.374 381.494 273.21 381.046 272.884 380.71C272.566 380.374 272.137 380.206 271.596 380.206C271.082 380.206 270.62 380.355 270.21 380.654C269.808 380.952 269.491 381.335 269.258 381.802C269.024 382.268 268.908 382.749 268.908 383.244C268.908 383.813 269.071 384.266 269.398 384.602C269.724 384.938 270.163 385.106 270.714 385.106ZM276.921 379.128H278.279L278.013 380.486C278.265 380.01 278.564 379.664 278.909 379.45C279.255 379.235 279.67 379.128 280.155 379.128H281.023L280.799 380.304H279.777C279.161 380.304 278.671 380.542 278.307 381.018C277.953 381.494 277.696 382.152 277.537 382.992L276.907 386.184H275.549L276.921 379.128ZM284.079 386.296C283.454 386.296 282.894 386.165 282.399 385.904C281.905 385.633 281.517 385.264 281.237 384.798C280.957 384.322 280.817 383.785 280.817 383.188C280.817 382.413 280.995 381.708 281.349 381.074C281.704 380.439 282.194 379.94 282.819 379.576C283.445 379.202 284.145 379.016 284.919 379.016C285.545 379.016 286.105 379.151 286.599 379.422C287.094 379.683 287.481 380.052 287.761 380.528C288.041 380.994 288.181 381.526 288.181 382.124C288.181 382.898 288.004 383.603 287.649 384.238C287.295 384.872 286.805 385.376 286.179 385.75C285.554 386.114 284.854 386.296 284.079 386.296ZM284.191 385.106C284.686 385.106 285.129 384.98 285.521 384.728C285.923 384.466 286.231 384.116 286.445 383.678C286.669 383.23 286.781 382.744 286.781 382.222C286.781 381.83 286.697 381.484 286.529 381.186C286.361 380.878 286.128 380.64 285.829 380.472C285.531 380.294 285.19 380.206 284.807 380.206C284.313 380.206 283.865 380.336 283.463 380.598C283.071 380.85 282.763 381.2 282.539 381.648C282.325 382.086 282.217 382.567 282.217 383.09C282.217 383.482 282.301 383.832 282.469 384.14C282.637 384.438 282.871 384.676 283.169 384.854C283.468 385.022 283.809 385.106 284.191 385.106ZM292.321 386.296C291.695 386.296 291.145 386.165 290.669 385.904C290.193 385.633 289.824 385.264 289.563 384.798C289.301 384.331 289.171 383.804 289.171 383.216C289.171 382.478 289.348 381.788 289.703 381.144C290.057 380.5 290.552 379.986 291.187 379.604C291.821 379.212 292.535 379.016 293.329 379.016C293.889 379.016 294.393 379.118 294.841 379.324C295.298 379.529 295.648 379.828 295.891 380.22C296.133 380.602 296.231 381.06 296.185 381.592H294.785C294.794 381.181 294.645 380.85 294.337 380.598C294.038 380.336 293.637 380.206 293.133 380.206C292.647 380.206 292.209 380.341 291.817 380.612C291.425 380.882 291.117 381.242 290.893 381.69C290.678 382.138 290.571 382.609 290.571 383.104C290.571 383.692 290.743 384.172 291.089 384.546C291.434 384.919 291.896 385.106 292.475 385.106C292.923 385.106 293.305 384.989 293.623 384.756C293.94 384.522 294.187 384.205 294.365 383.804H295.765C295.625 384.289 295.396 384.723 295.079 385.106C294.761 385.479 294.369 385.773 293.903 385.988C293.436 386.193 292.909 386.296 292.321 386.296ZM300.156 386.296C299.521 386.296 298.961 386.16 298.476 385.89C298 385.619 297.631 385.246 297.37 384.77C297.118 384.284 296.992 383.738 296.992 383.132C296.992 382.404 297.16 381.727 297.496 381.102C297.832 380.467 298.303 379.963 298.91 379.59C299.526 379.207 300.216 379.016 300.982 379.016C301.57 379.016 302.083 379.128 302.522 379.352C302.96 379.566 303.301 379.874 303.544 380.276C303.786 380.668 303.908 381.125 303.908 381.648C303.908 381.993 303.838 382.413 303.698 382.908H297.874V381.858H302.55C302.606 381.344 302.48 380.924 302.172 380.598C301.864 380.271 301.42 380.108 300.842 380.108C300.3 380.108 299.838 380.252 299.456 380.542C299.082 380.831 298.798 381.209 298.602 381.676C298.406 382.133 298.308 382.609 298.308 383.104C298.308 383.514 298.382 383.874 298.532 384.182C298.69 384.48 298.919 384.714 299.218 384.882C299.516 385.05 299.871 385.134 300.282 385.134C300.758 385.134 301.154 385.026 301.472 384.812C301.789 384.588 302.032 384.28 302.2 383.888H303.6C303.394 384.588 302.979 385.166 302.354 385.624C301.728 386.072 300.996 386.296 300.156 386.296ZM307.246 386.296C306.705 386.296 306.224 386.188 305.804 385.974C305.384 385.759 305.062 385.47 304.838 385.106C304.624 384.732 304.53 384.326 304.558 383.888H305.804C305.786 384.28 305.926 384.597 306.224 384.84C306.523 385.073 306.91 385.19 307.386 385.19C307.825 385.19 308.175 385.096 308.436 384.91C308.707 384.723 308.842 384.471 308.842 384.154C308.842 383.93 308.777 383.752 308.646 383.622C308.525 383.482 308.366 383.379 308.17 383.314C307.974 383.239 307.713 383.16 307.386 383.076C306.938 382.973 306.579 382.866 306.308 382.754C306.047 382.642 305.818 382.464 305.622 382.222C305.436 381.979 305.342 381.648 305.342 381.228C305.342 380.77 305.468 380.374 305.72 380.038C305.972 379.702 306.308 379.45 306.728 379.282C307.158 379.104 307.62 379.016 308.114 379.016C308.637 379.016 309.099 379.109 309.5 379.296C309.911 379.482 310.224 379.744 310.438 380.08C310.653 380.416 310.746 380.794 310.718 381.214H309.472C309.472 380.878 309.337 380.607 309.066 380.402C308.805 380.187 308.464 380.08 308.044 380.08C307.624 380.08 307.284 380.173 307.022 380.36C306.77 380.546 306.644 380.784 306.644 381.074C306.644 381.279 306.705 381.442 306.826 381.564C306.948 381.676 307.097 381.764 307.274 381.83C307.461 381.895 307.718 381.96 308.044 382.026C308.492 382.128 308.856 382.236 309.136 382.348C309.416 382.45 309.659 382.628 309.864 382.88C310.07 383.132 310.172 383.482 310.172 383.93C310.172 384.452 310.032 384.891 309.752 385.246C309.472 385.6 309.113 385.866 308.674 386.044C308.236 386.212 307.76 386.296 307.246 386.296ZM313.905 386.296C313.363 386.296 312.883 386.188 312.463 385.974C312.043 385.759 311.721 385.47 311.497 385.106C311.282 384.732 311.189 384.326 311.217 383.888H312.463C312.444 384.28 312.584 384.597 312.883 384.84C313.181 385.073 313.569 385.19 314.045 385.19C314.483 385.19 314.833 385.096 315.095 384.91C315.365 384.723 315.501 384.471 315.501 384.154C315.501 383.93 315.435 383.752 315.305 383.622C315.183 383.482 315.025 383.379 314.829 383.314C314.633 383.239 314.371 383.16 314.045 383.076C313.597 382.973 313.237 382.866 312.967 382.754C312.705 382.642 312.477 382.464 312.281 382.222C312.094 381.979 312.001 381.648 312.001 381.228C312.001 380.77 312.127 380.374 312.379 380.038C312.631 379.702 312.967 379.45 313.387 379.282C313.816 379.104 314.278 379.016 314.773 379.016C315.295 379.016 315.757 379.109 316.159 379.296C316.569 379.482 316.882 379.744 317.097 380.08C317.311 380.416 317.405 380.794 317.377 381.214H316.131C316.131 380.878 315.995 380.607 315.725 380.402C315.463 380.187 315.123 380.08 314.703 380.08C314.283 380.08 313.942 380.173 313.681 380.36C313.429 380.546 313.303 380.784 313.303 381.074C313.303 381.279 313.363 381.442 313.485 381.564C313.606 381.676 313.755 381.764 313.933 381.83C314.119 381.895 314.376 381.96 314.703 382.026C315.151 382.128 315.515 382.236 315.795 382.348C316.075 382.45 316.317 382.628 316.523 382.88C316.728 383.132 316.831 383.482 316.831 383.93C316.831 384.452 316.691 384.891 316.411 385.246C316.131 385.6 315.771 385.866 315.333 386.044C314.894 386.212 314.418 386.296 313.905 386.296ZM321.361 386.296C320.726 386.296 320.166 386.16 319.681 385.89C319.205 385.619 318.836 385.246 318.575 384.77C318.323 384.284 318.197 383.738 318.197 383.132C318.197 382.404 318.365 381.727 318.701 381.102C319.037 380.467 319.508 379.963 320.115 379.59C320.731 379.207 321.421 379.016 322.187 379.016C322.775 379.016 323.288 379.128 323.727 379.352C324.165 379.566 324.506 379.874 324.749 380.276C324.991 380.668 325.113 381.125 325.113 381.648C325.113 381.993 325.043 382.413 324.903 382.908H319.079V381.858H323.755C323.811 381.344 323.685 380.924 323.377 380.598C323.069 380.271 322.625 380.108 322.047 380.108C321.505 380.108 321.043 380.252 320.661 380.542C320.287 380.831 320.003 381.209 319.807 381.676C319.611 382.133 319.513 382.609 319.513 383.104C319.513 383.514 319.587 383.874 319.737 384.182C319.895 384.48 320.124 384.714 320.423 384.882C320.721 385.05 321.076 385.134 321.487 385.134C321.963 385.134 322.359 385.026 322.677 384.812C322.994 384.588 323.237 384.28 323.405 383.888H324.805C324.599 384.588 324.184 385.166 323.559 385.624C322.933 386.072 322.201 386.296 321.361 386.296ZM328.773 386.296C328.232 386.296 327.751 386.174 327.331 385.932C326.921 385.68 326.599 385.339 326.365 384.91C326.141 384.471 326.029 383.976 326.029 383.426C326.029 382.688 326.202 381.984 326.547 381.312C326.893 380.63 327.378 380.08 328.003 379.66C328.638 379.23 329.366 379.016 330.187 379.016C330.663 379.016 331.079 379.123 331.433 379.338C331.797 379.543 332.045 379.818 332.175 380.164L332.959 376.174H334.317L332.371 386.184H331.013L331.223 385.134C330.943 385.479 330.579 385.759 330.131 385.974C329.683 386.188 329.231 386.296 328.773 386.296ZM329.165 385.106C329.697 385.106 330.169 384.956 330.579 384.658C330.99 384.359 331.307 383.972 331.531 383.496C331.755 383.02 331.867 382.525 331.867 382.012C331.867 381.461 331.713 381.022 331.405 380.696C331.097 380.369 330.663 380.206 330.103 380.206C329.581 380.206 329.114 380.355 328.703 380.654C328.293 380.952 327.975 381.34 327.751 381.816C327.527 382.292 327.415 382.786 327.415 383.3C327.415 383.85 327.569 384.289 327.877 384.616C328.185 384.942 328.615 385.106 329.165 385.106ZM336.032 384.686L335.752 386.184H334.24L334.52 384.686H336.032ZM339.231 384.686L338.951 386.184H337.439L337.719 384.686H339.231ZM342.43 384.686L342.15 386.184H340.638L340.918 384.686H342.43Z" fill="#858699"/>
<defs>
<filter id="filter0_d_5_2015" x="271.445" y="149.634" width="108.207" height="138.051" filterUnits="userSpaceOnUse" color-interpolation-filters="sRGB">
<feFlood flood-opacity="0" result="BackgroundImageFix"/>
<feColorMatrix in="SourceAlpha" type="matrix" values="0 0 0 0 0 0 0 0 0 0 0 0 0 0 0 0 0 0 127 0" result="hardAlpha"/>
<feOffset dy="1.0813"/>
<feGaussianBlur stdDeviation="1.80216"/>
<feComposite in2="hardAlpha" operator="out"/>
<feColorMatrix type="matrix" values="0 0 0 0 0 0 0 0 0 0 0 0 0 0 0 0 0 0 0.1 0"/>
<feBlend mode="normal" in2="BackgroundImageFix" result="effect1_dropShadow_5_2015"/>
<feBlend mode="normal" in="SourceGraphic" in2="effect1_dropShadow_5_2015" result="shape"/>
</filter>
<filter id="filter1_d_5_2015" x="221.371" y="110.658" width="130.166" height="160.01" filterUnits="userSpaceOnUse" color-interpolation-filters="sRGB">
<feFlood flood-opacity="0" result="BackgroundImageFix"/>
<feColorMatrix in="SourceAlpha" type="matrix" values="0 0 0 0 0 0 0 0 0 0 0 0 0 0 0 0 0 0 127 0" result="hardAlpha"/>
<feMorphology radius="3.77089" operator="dilate" in="SourceAlpha" result="effect1_dropShadow_5_2015"/>
<feOffset dy="1.0813"/>
<feGaussianBlur stdDeviation="5.40649"/>
<feComposite in2="hardAlpha" operator="out"/>
<feColorMatrix type="matrix" values="0 0 0 0 0 0 0 0 0 0 0 0 0 0 0 0 0 0 0.1 0"/>
<feBlend mode="normal" in2="BackgroundImageFix" result="effect1_dropShadow_5_2015"/>
<feBlend mode="normal" in="SourceGraphic" in2="effect1_dropShadow_5_2015" result="shape"/>
</filter>
<filter id="filter2_d_5_2015" x="147" y="343" width="200" height="23" filterUnits="userSpaceOnUse" color-interpolation-filters="sRGB">
<feFlood flood-opacity="0" result="BackgroundImageFix"/>
<feColorMatrix in="SourceAlpha" type="matrix" values="0 0 0 0 0 0 0 0 0 0 0 0 0 0 0 0 0 0 127 0" result="hardAlpha"/>
<feOffset dy="1"/>
<feGaussianBlur stdDeviation="2"/>
<feComposite in2="hardAlpha" operator="out"/>
<feColorMatrix type="matrix" values="0 0 0 0 0 0 0 0 0 0 0 0 0 0 0 0 0 0 0.25 0"/>
<feBlend mode="normal" in2="BackgroundImageFix" result="effect1_dropShadow_5_2015"/>
<feBlend mode="normal" in="SourceGraphic" in2="effect1_dropShadow_5_2015" result="shape"/>
</filter>
<linearGradient id="paint0_linear_5_2015" x1="324.281" y1="163.976" x2="324.281" y2="170.482" gradientUnits="userSpaceOnUse">
<stop stop-color="#F0F0F0"/>
<stop offset="1" stop-color="#EAEAEA"/>
</linearGradient>
<linearGradient id="paint1_linear_5_2015" x1="324.281" y1="178.023" x2="324.281" y2="184.529" gradientUnits="userSpaceOnUse">
<stop stop-color="#F0F0F0"/>
<stop offset="1" stop-color="#EAEAEA"/>
</linearGradient>
<linearGradient id="paint2_linear_5_2015" x1="324.281" y1="192.071" x2="324.281" y2="198.577" gradientUnits="userSpaceOnUse">
<stop stop-color="#F0F0F0"/>
<stop offset="1" stop-color="#EAEAEA"/>
</linearGradient>
<linearGradient id="paint3_linear_5_2015" x1="324.281" y1="206.119" x2="324.281" y2="212.625" gradientUnits="userSpaceOnUse">
<stop stop-color="#F0F0F0"/>
<stop offset="1" stop-color="#EAEAEA"/>
</linearGradient>
<linearGradient id="paint4_linear_5_2015" x1="324.281" y1="220.167" x2="324.281" y2="226.673" gradientUnits="userSpaceOnUse">
<stop stop-color="#F0F0F0"/>
<stop offset="1" stop-color="#EAEAEA"/>
</linearGradient>
<linearGradient id="paint5_linear_5_2015" x1="324.281" y1="234.214" x2="324.281" y2="240.72" gradientUnits="userSpaceOnUse">
<stop stop-color="#F0F0F0"/>
<stop offset="1" stop-color="#EAEAEA"/>
</linearGradient>
<linearGradient id="paint6_linear_5_2015" x1="324.281" y1="248.262" x2="324.281" y2="254.768" gradientUnits="userSpaceOnUse">
<stop stop-color="#F0F0F0"/>
<stop offset="1" stop-color="#EAEAEA"/>
</linearGradient>
<linearGradient id="paint7_linear_5_2015" x1="324.281" y1="262.31" x2="324.281" y2="268.816" gradientUnits="userSpaceOnUse">
<stop stop-color="#F0F0F0"/>
<stop offset="1" stop-color="#EAEAEA"/>
</linearGradient>
<linearGradient id="paint8_linear_5_2015" x1="258.07" y1="140.786" x2="258.07" y2="164.28" gradientUnits="userSpaceOnUse">
<stop stop-color="#F0F0F0"/>
<stop offset="1" stop-color="#EAEAEA"/>
</linearGradient>
<linearGradient id="paint9_linear_5_2015" x1="302.27" y1="143.318" x2="302.27" y2="149.824" gradientUnits="userSpaceOnUse">
<stop stop-color="#F0F0F0"/>
<stop offset="1" stop-color="#EAEAEA"/>
</linearGradient>
<linearGradient id="paint10_linear_5_2015" x1="283.949" y1="175.124" x2="283.949" y2="181.63" gradientUnits="userSpaceOnUse">
<stop stop-color="#F0F0F0"/>
<stop offset="1" stop-color="#EAEAEA"/>
</linearGradient>
<linearGradient id="paint11_linear_5_2015" x1="283.949" y1="189.172" x2="283.949" y2="195.678" gradientUnits="userSpaceOnUse">
<stop stop-color="#F0F0F0"/>
<stop offset="1" stop-color="#EAEAEA"/>
</linearGradient>
<linearGradient id="paint12_linear_5_2015" x1="283.949" y1="203.219" x2="283.949" y2="209.725" gradientUnits="userSpaceOnUse">
<stop stop-color="#F0F0F0"/>
<stop offset="1" stop-color="#EAEAEA"/>
</linearGradient>
<linearGradient id="paint13_linear_5_2015" x1="283.949" y1="217.267" x2="283.949" y2="223.773" gradientUnits="userSpaceOnUse">
<stop stop-color="#F0F0F0"/>
<stop offset="1" stop-color="#EAEAEA"/>
</linearGradient>
<linearGradient id="paint14_linear_5_2015" x1="283.949" y1="231.315" x2="283.949" y2="237.821" gradientUnits="userSpaceOnUse">
<stop stop-color="#F0F0F0"/>
<stop offset="1" stop-color="#EAEAEA"/>
</linearGradient>
<linearGradient id="paint15_linear_5_2015" x1="293.285" y1="154.523" x2="293.285" y2="161.029" gradientUnits="userSpaceOnUse">
<stop stop-color="#F0F0F0"/>
<stop offset="1" stop-color="#EAEAEA"/>
</linearGradient>
<linearGradient id="paint16_linear_5_2015" x1="151" y1="353.5" x2="343" y2="353.5" gradientUnits="userSpaceOnUse">
<stop offset="0.645722" stop-color="#ABACC2"/>
<stop offset="0.992619" stop-color="#858699"/>
</linearGradient>
</defs>
</svg>
